<svg width="1433" height="780" viewBox="0 0 1433 780" fill="none" xmlns="http://www.w3.org/2000/svg">
<g id="undraw_amusement_park_17oe (1) 1">
<g id="wheel">
<path id="Vector" d="M613.489 611.167C448.143 611.167 313.625 474.082 313.625 305.583C313.625 137.085 448.143 0 613.489 0C778.835 0 913.353 137.085 913.353 305.583C913.353 474.082 778.835 611.167 613.489 611.167ZM613.489 4.10179C450.363 4.10179 317.65 139.346 317.65 305.583C317.65 471.821 450.363 607.065 613.489 607.065C776.615 607.065 909.328 471.821 909.328 305.583C909.328 139.346 776.615 4.10179 613.489 4.10179Z" fill="#CCCCCC"/>
<path id="Vector_2" d="M613.489 283.024C612.955 283.024 612.443 282.807 612.066 282.423C611.689 282.038 611.477 281.517 611.477 280.973V2.0509C611.477 1.50696 611.689 0.98534 612.066 0.600723C612.443 0.216106 612.955 0 613.489 0C614.023 0 614.535 0.216106 614.912 0.600723C615.29 0.98534 615.502 1.50696 615.502 2.0509V280.973C615.502 281.517 615.29 282.038 614.912 282.423C614.535 282.807 614.023 283.024 613.489 283.024V283.024Z" fill="#CCCCCC"/>
<path id="Vector_3" d="M911.34 307.634H637.639C637.105 307.634 636.593 307.418 636.216 307.034C635.839 306.649 635.626 306.127 635.626 305.583C635.626 305.039 635.839 304.518 636.216 304.133C636.593 303.749 637.105 303.532 637.639 303.532H911.34C911.874 303.532 912.386 303.749 912.763 304.133C913.141 304.518 913.353 305.039 913.353 305.583C913.353 306.127 913.141 306.649 912.763 307.034C912.386 307.418 911.874 307.634 911.34 307.634Z" fill="#CCCCCC"/>
<path id="Vector_4" d="M589.339 307.634H315.767C315.233 307.634 314.721 307.418 314.344 307.034C313.966 306.649 313.754 306.127 313.754 305.583C313.754 305.039 313.966 304.518 314.344 304.133C314.721 303.749 315.233 303.532 315.767 303.532H589.339C589.872 303.532 590.384 303.749 590.762 304.133C591.139 304.518 591.351 305.039 591.351 305.583C591.351 306.127 591.139 306.649 590.762 307.034C590.384 307.418 589.872 307.634 589.339 307.634Z" fill="#CCCCCC"/>
<path id="Vector_5" d="M613.489 611.167C612.955 611.167 612.443 610.951 612.066 610.566C611.689 610.182 611.477 609.66 611.477 609.116V330.194C611.477 329.65 611.689 329.129 612.066 328.744C612.443 328.359 612.955 328.143 613.489 328.143C614.023 328.143 614.535 328.359 614.912 328.744C615.29 329.129 615.502 329.65 615.502 330.194V609.116C615.502 609.66 615.29 610.182 614.912 610.566C614.535 610.951 614.023 611.167 613.489 611.167V611.167Z" fill="#CCCCCC"/>
<path id="Vector_6" d="M631.233 290.969C630.835 290.969 630.446 290.848 630.115 290.623C629.784 290.398 629.526 290.077 629.374 289.703C629.222 289.328 629.182 288.916 629.259 288.518C629.337 288.12 629.529 287.755 629.81 287.468L822.494 91.1077C822.681 90.9173 822.903 90.7662 823.147 90.6632C823.391 90.5601 823.653 90.5071 823.917 90.5071C824.182 90.5071 824.443 90.5601 824.687 90.6632C824.932 90.7662 825.153 90.9173 825.34 91.1077C825.527 91.2981 825.675 91.5242 825.776 91.773C825.878 92.0218 825.93 92.2884 825.93 92.5577C825.93 92.827 825.878 93.0937 825.776 93.3425C825.675 93.5913 825.527 93.8174 825.34 94.0078L632.656 290.368C632.469 290.559 632.247 290.71 632.003 290.813C631.759 290.916 631.497 290.969 631.233 290.969V290.969Z" fill="#CCCCCC"/>
<path id="Vector_7" d="M595.745 290.969C595.481 290.969 595.219 290.916 594.975 290.813C594.731 290.71 594.509 290.559 594.322 290.368L401.637 94.0077C401.26 93.6231 401.048 93.1015 401.048 92.5577C401.048 92.0138 401.26 91.4921 401.637 91.1076C402.015 90.723 402.526 90.507 403.06 90.507C403.594 90.507 404.106 90.723 404.483 91.1076L597.168 287.468C597.449 287.755 597.641 288.12 597.719 288.518C597.796 288.916 597.756 289.328 597.604 289.703C597.452 290.077 597.194 290.398 596.863 290.623C596.532 290.848 596.143 290.969 595.745 290.969L595.745 290.969Z" fill="#CCCCCC"/>
<path id="Vector_8" d="M823.917 520.66C823.653 520.66 823.391 520.608 823.147 520.504C822.903 520.401 822.681 520.25 822.495 520.059L629.81 323.699C629.433 323.314 629.221 322.793 629.221 322.249C629.221 321.705 629.433 321.183 629.81 320.799C630.187 320.414 630.699 320.198 631.233 320.198C631.767 320.198 632.278 320.414 632.656 320.799L825.34 517.159C825.622 517.446 825.813 517.811 825.891 518.209C825.969 518.607 825.929 519.019 825.776 519.394C825.624 519.769 825.366 520.089 825.035 520.314C824.705 520.54 824.316 520.66 823.918 520.66L823.917 520.66Z" fill="#CCCCCC"/>
<path id="Vector_9" d="M403.06 520.66C402.662 520.66 402.273 520.54 401.943 520.314C401.612 520.089 401.354 519.769 401.201 519.394C401.049 519.019 401.009 518.607 401.087 518.209C401.165 517.811 401.356 517.446 401.638 517.159L594.323 320.799C594.509 320.609 594.731 320.458 594.975 320.354C595.22 320.251 595.481 320.198 595.745 320.198C596.01 320.198 596.271 320.251 596.516 320.354C596.76 320.458 596.982 320.609 597.168 320.799C597.355 320.989 597.503 321.215 597.605 321.464C597.706 321.713 597.758 321.98 597.758 322.249C597.758 322.518 597.706 322.785 597.605 323.034C597.503 323.283 597.355 323.509 597.168 323.699L404.483 520.059C404.297 520.25 404.075 520.401 403.831 520.505C403.587 520.608 403.325 520.66 403.06 520.66V520.66Z" fill="#CCCCCC"/>
<path id="Vector_10" d="M613.489 515.8C572.69 515.8 532.808 503.471 498.885 480.372C464.962 457.273 438.522 424.442 422.909 386.03C407.296 347.618 403.211 305.35 411.17 264.572C419.13 223.794 438.776 186.337 467.625 156.938C496.474 127.538 533.23 107.517 573.245 99.4059C613.26 91.2946 654.736 95.4577 692.43 111.368C730.123 127.279 762.34 154.223 785.006 188.793C807.673 223.363 819.771 264.006 819.771 305.583C819.709 361.317 797.956 414.75 759.284 454.16C720.612 493.569 668.179 515.737 613.489 515.8V515.8ZM613.489 99.4684C573.486 99.4684 534.382 111.557 501.121 134.205C467.86 156.853 441.936 189.044 426.628 226.707C411.319 264.369 407.314 305.812 415.118 345.794C422.922 385.777 442.185 422.503 470.471 451.329C498.758 480.154 534.796 499.785 574.03 507.738C613.265 515.691 653.932 511.609 690.889 496.009C727.847 480.409 759.435 453.99 781.66 420.095C803.884 386.199 815.746 346.349 815.746 305.583C815.685 250.937 794.357 198.547 756.439 159.906C718.522 121.266 667.112 99.5302 613.489 99.4684V99.4684Z" fill="#CCCCCC"/>
<path id="Vector_11" d="M613.489 330.194C626.827 330.194 637.639 319.176 637.639 305.583C637.639 291.991 626.827 280.973 613.489 280.973C600.151 280.973 589.339 291.991 589.339 305.583C589.339 319.176 600.151 330.194 613.489 330.194Z" fill="#3F3D56"/>
</g>
<g id="ballons">
<path id="Vector_12" d="M1011.49 642.329C1011.38 642.329 1011.26 642.319 1011.15 642.299C1010.89 642.253 1010.64 642.156 1010.42 642.012C1010.19 641.869 1010 641.681 1009.85 641.461C1009.69 641.242 1009.59 640.993 1009.53 640.73C1009.47 640.468 1009.46 640.196 1009.51 639.931L1029.41 521.909C1029.5 521.374 1029.8 520.897 1030.23 520.584C1030.67 520.271 1031.21 520.147 1031.73 520.239C1032.26 520.331 1032.73 520.632 1033.03 521.075C1033.34 521.519 1033.47 522.068 1033.38 522.604L1013.47 640.626C1013.39 641.102 1013.15 641.534 1012.79 641.845C1012.43 642.157 1011.97 642.328 1011.49 642.329V642.329Z" fill="#CCCCCC"/>
<path id="Vector_13" d="M1011.49 642.329C1011.01 642.328 1010.56 642.157 1010.19 641.845C1009.83 641.534 1009.59 641.102 1009.51 640.625L989.604 522.604C989.514 522.068 989.636 521.517 989.944 521.073C990.252 520.628 990.721 520.327 991.247 520.235C991.773 520.143 992.313 520.267 992.749 520.581C993.185 520.895 993.481 521.373 993.571 521.909L1013.47 639.931C1013.52 640.196 1013.51 640.468 1013.45 640.73C1013.4 640.993 1013.29 641.241 1013.13 641.461C1012.98 641.681 1012.79 641.869 1012.56 642.012C1012.34 642.156 1012.09 642.253 1011.83 642.299C1011.72 642.319 1011.6 642.329 1011.49 642.329Z" fill="#CCCCCC"/>
<path id="Vector_14" d="M1054.34 501.707C1056.28 487.701 1048.94 475.064 1037.94 473.483C1026.95 471.901 1016.46 481.973 1014.52 495.979C1012.88 507.791 1017.86 518.601 1026.05 522.655L1025.59 526.023L1035.54 527.455L1036.01 524.087C1044.98 522.503 1052.7 513.519 1054.34 501.707Z" fill="#FF6584"/>
<path id="Vector_15" d="M1008.12 495.333C1005.73 481.398 994.936 471.676 983.996 473.617C973.056 475.559 966.119 488.43 968.501 502.365C970.51 514.117 978.51 522.843 987.528 524.132L988.1 527.483L998.004 525.725L997.432 522.375C1005.49 518.054 1010.12 507.086 1008.12 495.333Z" fill="#CCCCCC"/>
<path id="Vector_16" d="M1011.38 639.879C1010.85 639.879 1010.33 639.663 1009.96 639.279C1009.58 638.894 1009.37 638.372 1009.37 637.828V516.502C1009.37 515.958 1009.58 515.437 1009.96 515.052C1010.33 514.667 1010.85 514.451 1011.38 514.451C1011.91 514.451 1012.42 514.667 1012.8 515.052C1013.18 515.437 1013.39 515.958 1013.39 516.502V637.828C1013.39 638.372 1013.18 638.894 1012.8 639.279C1012.42 639.663 1011.91 639.879 1011.38 639.879V639.879Z" fill="#CCCCCC"/>
<path id="Vector_17" d="M1030.24 493.197C1030.24 479.053 1021.24 467.586 1010.13 467.586C999.028 467.586 990.027 479.053 990.027 493.197C990.027 505.127 996.439 515.122 1005.11 517.97V521.37H1015.16V517.97C1023.83 515.122 1030.24 505.127 1030.24 493.197Z" fill="#6C63FF"/>
</g>
<g id="box">
<path id="Vector_18" d="M648.431 554.585H582.019V591.501H648.431V554.585Z" fill="#CCCCCC"/>
<path id="Vector_19" d="M612.206 562.789H586.043V591.501H612.206V562.789Z" fill="white"/>
<path id="Vector_20" d="M644.406 562.789H618.244V591.501H644.406V562.789Z" fill="white"/>
<path id="Vector_21" d="M586.044 584.323C584.176 584.326 582.386 585.082 581.065 586.428C579.745 587.774 579.002 589.598 579 591.501V592.527C579 602.318 582.817 611.707 589.61 618.63C596.404 625.554 605.618 629.443 615.225 629.443C624.833 629.443 634.047 625.554 640.84 618.63C647.634 611.707 651.45 602.318 651.45 592.527V591.501C651.448 589.598 650.705 587.774 649.385 586.428C648.064 585.082 646.274 584.326 644.407 584.323H586.044Z" fill="#CCCCCC"/>
<path id="Vector_22" d="M596.581 531C596.02 530.998 595.47 531.156 594.993 531.457C594.516 531.757 594.131 532.188 593.881 532.7L581.806 557.311C581.576 557.78 581.467 558.301 581.49 558.825C581.513 559.349 581.667 559.858 581.938 560.304C582.208 560.75 582.586 561.119 583.036 561.374C583.485 561.629 583.992 561.764 584.506 561.763H645.944C646.458 561.764 646.964 561.629 647.414 561.374C647.863 561.119 648.241 560.75 648.512 560.304C648.782 559.858 648.936 559.349 648.959 558.825C648.983 558.301 648.874 557.78 648.644 557.311L636.569 532.7C636.319 532.188 635.934 531.757 635.457 531.457C634.98 531.156 634.43 530.998 633.869 531H596.581Z" fill="#6C63FF"/>
</g>
<g id="box_2">
<path id="Vector_23" d="M477.431 452.585H411.019V489.501H477.431V452.585Z" fill="#CCCCCC"/>
<path id="Vector_24" d="M441.206 460.789H415.043V489.501H441.206V460.789Z" fill="white"/>
<path id="Vector_25" d="M473.406 460.789H447.244V489.501H473.406V460.789Z" fill="white"/>
<path id="Vector_26" d="M415.044 482.323C413.176 482.326 411.386 483.082 410.065 484.428C408.745 485.774 408.002 487.598 408 489.501V490.527C408 500.318 411.817 509.707 418.61 516.63C425.404 523.554 434.618 527.443 444.225 527.443C453.833 527.443 463.047 523.554 469.84 516.63C476.634 509.707 480.45 500.318 480.45 490.527V489.501C480.448 487.598 479.705 485.774 478.385 484.428C477.064 483.082 475.274 482.326 473.407 482.323H415.044Z" fill="#CCCCCC"/>
<path id="Vector_27" d="M425.581 429C425.02 428.998 424.47 429.156 423.993 429.457C423.516 429.757 423.131 430.188 422.881 430.7L410.806 455.311C410.576 455.78 410.467 456.301 410.49 456.825C410.513 457.349 410.667 457.858 410.938 458.304C411.208 458.75 411.586 459.119 412.036 459.374C412.485 459.629 412.992 459.764 413.506 459.763H474.944C475.458 459.764 475.964 459.629 476.414 459.374C476.863 459.119 477.241 458.75 477.512 458.304C477.782 457.858 477.936 457.349 477.959 456.825C477.983 456.301 477.874 455.78 477.644 455.311L465.569 430.7C465.319 430.188 464.934 429.757 464.457 429.457C463.98 429.156 463.43 428.998 462.869 429H425.581Z" fill="#6C63FF"/>
</g>
<g id="box_3">
<path id="Vector_28" d="M405.431 270.585H339.019V307.501H405.431V270.585Z" fill="#CCCCCC"/>
<path id="Vector_29" d="M369.206 278.789H343.043V307.501H369.206V278.789Z" fill="white"/>
<path id="Vector_30" d="M401.406 278.789H375.244V307.501H401.406V278.789Z" fill="white"/>
<path id="Vector_31" d="M343.044 300.323C341.176 300.326 339.386 301.082 338.065 302.428C336.745 303.774 336.002 305.598 336 307.501V308.527C336 318.318 339.817 327.707 346.61 334.63C353.404 341.554 362.618 345.443 372.225 345.443C381.833 345.443 391.047 341.554 397.84 334.63C404.634 327.707 408.45 318.318 408.45 308.527V307.501C408.448 305.598 407.705 303.774 406.385 302.428C405.064 301.082 403.274 300.326 401.407 300.323H343.044Z" fill="#CCCCCC"/>
<path id="Vector_32" d="M353.581 247C353.02 246.998 352.47 247.156 351.993 247.457C351.516 247.757 351.131 248.188 350.881 248.7L338.806 273.311C338.576 273.78 338.467 274.301 338.49 274.825C338.513 275.349 338.667 275.858 338.938 276.304C339.208 276.75 339.586 277.119 340.036 277.374C340.485 277.629 340.992 277.764 341.506 277.763H402.944C403.458 277.764 403.964 277.629 404.414 277.374C404.863 277.119 405.241 276.75 405.512 276.304C405.782 275.858 405.936 275.349 405.959 274.825C405.983 274.301 405.874 273.78 405.644 273.311L393.569 248.7C393.319 248.188 392.934 247.757 392.457 247.457C391.98 247.156 391.43 246.998 390.869 247H353.581Z" fill="#6C63FF"/>
</g>
<g id="box_4">
<path id="Vector_33" d="M482.431 109.585H416.019V146.501H482.431V109.585Z" fill="#CCCCCC"/>
<path id="Vector_34" d="M446.206 117.789H420.043V146.501H446.206V117.789Z" fill="white"/>
<path id="Vector_35" d="M478.406 117.789H452.244V146.501H478.406V117.789Z" fill="white"/>
<path id="Vector_36" d="M420.044 139.323C418.176 139.326 416.386 140.082 415.065 141.428C413.745 142.774 413.002 144.598 413 146.501V147.527C413 157.318 416.817 166.707 423.61 173.63C430.404 180.554 439.618 184.443 449.225 184.443C458.833 184.443 468.047 180.554 474.84 173.63C481.634 166.707 485.45 157.318 485.45 147.527V146.501C485.448 144.598 484.705 142.774 483.385 141.428C482.064 140.082 480.274 139.326 478.407 139.323H420.044Z" fill="#CCCCCC"/>
<path id="Vector_37" d="M430.581 86C430.02 85.9981 429.47 86.1564 428.993 86.4569C428.516 86.7575 428.131 87.1883 427.881 87.7004L415.806 112.311C415.576 112.78 415.467 113.301 415.49 113.825C415.513 114.349 415.667 114.858 415.938 115.304C416.208 115.75 416.586 116.119 417.036 116.374C417.485 116.629 417.992 116.764 418.506 116.763H479.944C480.458 116.764 480.964 116.629 481.414 116.374C481.863 116.119 482.241 115.75 482.512 115.304C482.782 114.858 482.936 114.349 482.959 113.825C482.983 113.301 482.874 112.78 482.644 112.311L470.569 87.7004C470.319 87.1883 469.934 86.7575 469.457 86.4569C468.98 86.1564 468.43 85.9981 467.869 86H430.581Z" fill="#6C63FF"/>
</g>
<g id="box_5">
<path id="Vector_38" d="M646.431 42.5853H580.019V79.5013H646.431V42.5853Z" fill="#CCCCCC"/>
<path id="Vector_39" d="M610.206 50.7888H584.043V79.5013H610.206V50.7888Z" fill="white"/>
<path id="Vector_40" d="M642.406 50.7888H616.244V79.5013H642.406V50.7888Z" fill="white"/>
<path id="Vector_41" d="M584.044 72.3233C582.176 72.3255 580.386 73.0825 579.065 74.4281C577.745 75.7738 577.002 77.5984 577 79.5014V80.5269C577 90.3176 580.817 99.7074 587.61 106.63C594.404 113.554 603.618 117.443 613.225 117.443C622.833 117.443 632.047 113.554 638.84 106.63C645.634 99.7074 649.45 90.3176 649.45 80.5269V79.5014C649.448 77.5984 648.705 75.7738 647.385 74.4281C646.064 73.0825 644.274 72.3255 642.407 72.3233H584.044Z" fill="#CCCCCC"/>
<path id="Vector_42" d="M594.581 19C594.02 18.9981 593.47 19.1564 592.993 19.4569C592.516 19.7575 592.131 20.1883 591.881 20.7004L579.806 45.3111C579.576 45.7801 579.467 46.3014 579.49 46.8253C579.513 47.3492 579.667 47.8583 579.938 48.3044C580.208 48.7505 580.586 49.1188 581.036 49.3741C581.485 49.6295 581.992 49.7635 582.506 49.7634H643.944C644.458 49.7635 644.964 49.6295 645.414 49.3741C645.863 49.1188 646.241 48.7505 646.512 48.3044C646.782 47.8583 646.936 47.3492 646.959 46.8253C646.983 46.3014 646.874 45.7801 646.644 45.3111L634.569 20.7004C634.319 20.1883 633.934 19.7575 633.457 19.4569C632.98 19.1564 632.43 18.9981 631.869 19H594.581Z" fill="#6C63FF"/>
</g>
<g id="box_6">
<path id="Vector_43" d="M837.431 109.585H771.019V146.501H837.431V109.585Z" fill="#CCCCCC"/>
<path id="Vector_44" d="M801.206 117.789H775.043V146.501H801.206V117.789Z" fill="white"/>
<path id="Vector_45" d="M833.406 117.789H807.244V146.501H833.406V117.789Z" fill="white"/>
<path id="Vector_46" d="M775.044 139.323C773.176 139.326 771.386 140.082 770.065 141.428C768.745 142.774 768.002 144.598 768 146.501V147.527C768 157.318 771.817 166.707 778.61 173.63C785.404 180.554 794.618 184.443 804.225 184.443C813.833 184.443 823.047 180.554 829.84 173.63C836.634 166.707 840.45 157.318 840.45 147.527V146.501C840.448 144.598 839.705 142.774 838.385 141.428C837.064 140.082 835.274 139.326 833.407 139.323H775.044Z" fill="#CCCCCC"/>
<path id="Vector_47" d="M785.581 86C785.02 85.9981 784.47 86.1564 783.993 86.4569C783.516 86.7575 783.131 87.1883 782.881 87.7004L770.806 112.311C770.576 112.78 770.467 113.301 770.49 113.825C770.513 114.349 770.667 114.858 770.938 115.304C771.208 115.75 771.586 116.119 772.036 116.374C772.485 116.629 772.992 116.764 773.506 116.763H834.944C835.458 116.764 835.964 116.629 836.414 116.374C836.863 116.119 837.241 115.75 837.512 115.304C837.782 114.858 837.936 114.349 837.959 113.825C837.983 113.301 837.874 112.78 837.644 112.311L825.569 87.7004C825.319 87.1883 824.934 86.7575 824.457 86.4569C823.98 86.1564 823.43 85.9981 822.869 86H785.581Z" fill="#6C63FF"/>
</g>
<g id="box_7">
<path id="Vector_48" d="M821.431 456.585H755.019V493.501H821.431V456.585Z" fill="#CCCCCC"/>
<path id="Vector_49" d="M785.206 464.789H759.043V493.501H785.206V464.789Z" fill="white"/>
<path id="Vector_50" d="M817.406 464.789H791.244V493.501H817.406V464.789Z" fill="white"/>
<path id="Vector_51" d="M759.044 486.323C757.176 486.326 755.386 487.082 754.065 488.428C752.745 489.774 752.002 491.598 752 493.501V494.527C752 504.318 755.817 513.707 762.61 520.63C769.404 527.554 778.618 531.443 788.225 531.443C797.833 531.443 807.047 527.554 813.84 520.63C820.634 513.707 824.45 504.318 824.45 494.527V493.501C824.448 491.598 823.705 489.774 822.385 488.428C821.064 487.082 819.274 486.326 817.407 486.323H759.044Z" fill="#CCCCCC"/>
<path id="Vector_52" d="M769.581 433C769.02 432.998 768.47 433.156 767.993 433.457C767.516 433.757 767.131 434.188 766.881 434.7L754.806 459.311C754.576 459.78 754.467 460.301 754.49 460.825C754.513 461.349 754.667 461.858 754.938 462.304C755.208 462.75 755.586 463.119 756.036 463.374C756.485 463.629 756.992 463.764 757.506 463.763H818.944C819.458 463.764 819.964 463.629 820.414 463.374C820.863 463.119 821.241 462.75 821.512 462.304C821.782 461.858 821.936 461.349 821.959 460.825C821.983 460.301 821.874 459.78 821.644 459.311L809.569 434.7C809.319 434.188 808.934 433.757 808.457 433.457C807.98 433.156 807.43 432.998 806.869 433H769.581Z" fill="#6C63FF"/>
</g>
<g id="box_8">
<path id="Vector_53" d="M888.431 278.585H822.019V315.501H888.431V278.585Z" fill="#CCCCCC"/>
<path id="Vector_54" d="M852.206 286.789H826.043V315.501H852.206V286.789Z" fill="white"/>
<path id="Vector_55" d="M884.406 286.789H858.244V315.501H884.406V286.789Z" fill="white"/>
<path id="Vector_56" d="M826.044 308.323C824.176 308.326 822.386 309.082 821.065 310.428C819.745 311.774 819.002 313.598 819 315.501V316.527C819 326.318 822.817 335.707 829.61 342.63C836.404 349.554 845.618 353.443 855.225 353.443C864.833 353.443 874.047 349.554 880.84 342.63C887.634 335.707 891.45 326.318 891.45 316.527V315.501C891.448 313.598 890.705 311.774 889.385 310.428C888.064 309.082 886.274 308.326 884.407 308.323H826.044Z" fill="#CCCCCC"/>
<path id="Vector_57" d="M836.581 255C836.02 254.998 835.47 255.156 834.993 255.457C834.516 255.757 834.131 256.188 833.881 256.7L821.806 281.311C821.576 281.78 821.467 282.301 821.49 282.825C821.513 283.349 821.667 283.858 821.938 284.304C822.208 284.75 822.586 285.119 823.036 285.374C823.485 285.629 823.992 285.764 824.506 285.763H885.944C886.458 285.764 886.964 285.629 887.414 285.374C887.863 285.119 888.241 284.75 888.512 284.304C888.782 283.858 888.936 283.349 888.959 282.825C888.983 282.301 888.874 281.78 888.644 281.311L876.569 256.7C876.319 256.188 875.934 255.757 875.457 255.457C874.98 255.156 874.43 254.998 873.869 255H836.581Z" fill="#6C63FF"/>
</g>
<g id="details">
<path id="Vector_58" d="M1433 461.911C1433 397.138 1381.44 243.435 1317.84 243.435C1254.23 243.435 1202.67 397.138 1202.67 461.911C1202.69 493.022 1214.84 522.851 1236.43 544.842C1258.03 566.833 1287.31 579.186 1317.84 579.186C1348.36 579.186 1377.64 566.833 1399.24 544.842C1420.83 522.851 1432.98 493.022 1433 461.911H1433Z" fill="#F2F2F2"/>
<path id="Vector_59" d="M1317.84 721.794C1317.49 721.794 1317.15 721.653 1316.91 721.401C1316.66 721.149 1316.52 720.808 1316.52 720.452V446.483C1316.52 446.128 1316.66 445.786 1316.91 445.535C1317.15 445.283 1317.49 445.141 1317.84 445.141C1318.19 445.141 1318.52 445.283 1318.77 445.535C1319.01 445.786 1319.15 446.128 1319.15 446.483V720.452C1319.15 720.808 1319.01 721.149 1318.77 721.401C1318.52 721.653 1318.19 721.794 1317.84 721.794Z" fill="#CCCCCC"/>
<path id="Vector_60" d="M1317.84 497.67C1317.65 497.671 1317.46 497.63 1317.29 497.55C1317.12 497.47 1316.96 497.353 1316.84 497.208L1250.61 419.368C1250.38 419.099 1250.27 418.749 1250.29 418.394C1250.32 418.04 1250.48 417.71 1250.74 417.477C1251 417.244 1251.35 417.127 1251.7 417.152C1252.04 417.177 1252.37 417.341 1252.6 417.61L1318.83 495.449C1319 495.643 1319.1 495.882 1319.14 496.137C1319.18 496.391 1319.14 496.651 1319.03 496.885C1318.93 497.119 1318.76 497.318 1318.55 497.457C1318.34 497.596 1318.09 497.67 1317.84 497.67Z" fill="#CCCCCC"/>
<path id="Vector_61" d="M1317.84 542.593C1317.58 542.593 1317.32 542.514 1317.1 542.367C1316.89 542.219 1316.72 542.009 1316.62 541.764C1316.52 541.519 1316.49 541.249 1316.54 540.989C1316.6 540.729 1316.72 540.49 1316.91 540.302L1354.54 501.948C1354.79 501.698 1355.12 501.557 1355.47 501.558C1355.82 501.559 1356.15 501.7 1356.4 501.951C1356.65 502.202 1356.78 502.543 1356.79 502.898C1356.79 503.253 1356.65 503.594 1356.4 503.846L1318.77 542.2C1318.65 542.324 1318.5 542.423 1318.34 542.491C1318.18 542.558 1318.01 542.593 1317.84 542.593V542.593Z" fill="#CCCCCC"/>
<path id="Vector_62" d="M163.106 575.448C163.106 538.973 134.071 452.42 98.255 452.42C62.4386 452.42 33.4038 538.973 33.4038 575.448C33.4134 592.969 40.2501 609.77 52.4111 622.156C64.572 634.542 81.0618 641.5 98.2552 641.5C115.449 641.5 131.938 634.542 144.099 622.156C156.26 609.77 163.097 592.969 163.107 575.448H163.106Z" fill="#F2F2F2"/>
<path id="Vector_63" d="M98.2553 721.794C98.0586 721.794 97.87 721.715 97.7309 721.573C97.5918 721.431 97.5137 721.239 97.5137 721.039V566.761C97.5137 566.561 97.5918 566.368 97.7309 566.227C97.87 566.085 98.0586 566.005 98.2553 566.005C98.452 566.005 98.6406 566.085 98.7797 566.227C98.9188 566.368 98.9969 566.561 98.9969 566.761V721.039C98.9969 721.239 98.9187 721.431 98.7797 721.573C98.6406 721.715 98.452 721.794 98.2553 721.794V721.794Z" fill="#CCCCCC"/>
<path id="Vector_64" d="M98.2558 595.585C98.1495 595.586 98.0443 595.562 97.9475 595.517C97.8508 595.473 97.7647 595.407 97.6951 595.325L60.3976 551.492C60.2697 551.34 60.2059 551.143 60.2202 550.944C60.2346 550.744 60.3258 550.559 60.474 550.428C60.6222 550.297 60.8153 550.231 61.011 550.245C61.2068 550.259 61.3892 550.351 61.5184 550.501L98.8158 594.335C98.9089 594.444 98.9692 594.578 98.9895 594.722C99.0098 594.865 98.9892 595.012 98.9302 595.143C98.8712 595.275 98.7762 595.387 98.6567 595.465C98.5371 595.544 98.398 595.585 98.2558 595.586V595.585Z" fill="#CCCCCC"/>
<path id="Vector_65" d="M98.2556 620.882C98.1089 620.882 97.9656 620.838 97.8437 620.755C97.7217 620.672 97.6267 620.554 97.5706 620.416C97.5145 620.277 97.4998 620.126 97.5284 619.979C97.557 619.832 97.6276 619.698 97.7313 619.592L118.924 597.994C119.063 597.853 119.252 597.773 119.449 597.773C119.645 597.773 119.834 597.853 119.973 597.994C120.112 598.136 120.19 598.328 120.19 598.529C120.19 598.729 120.112 598.921 119.973 599.063L98.7799 620.661C98.7111 620.731 98.6294 620.787 98.5394 620.825C98.4495 620.863 98.353 620.882 98.2556 620.882Z" fill="#CCCCCC"/>
<path id="Vector_66" d="M28.0151 720.793C28.0151 713.476 30.8675 706.458 35.9449 701.284C41.0222 696.109 47.9085 693.203 55.0889 693.203C62.2694 693.203 69.1556 696.109 74.233 701.284C79.3103 706.458 82.1627 713.476 82.1627 720.793" fill="#F2F2F2"/>
<path id="Vector_67" d="M55.0887 720.793C54.8946 720.793 54.7084 720.714 54.5712 720.574C54.434 720.435 54.3569 720.245 54.3569 720.047V705.506C54.3569 705.309 54.434 705.119 54.5712 704.979C54.7084 704.839 54.8946 704.761 55.0887 704.761C55.2827 704.761 55.4688 704.839 55.606 704.979C55.7433 705.119 55.8204 705.309 55.8204 705.506V720.047C55.8204 720.245 55.7433 720.435 55.606 720.574C55.4688 720.714 55.2827 720.793 55.0887 720.793V720.793Z" fill="#CCCCCC"/>
<path id="Vector_68" d="M55.0884 715.796C54.9136 715.796 54.7446 715.733 54.6121 715.616L45.8316 707.936C45.7584 707.873 45.6981 707.795 45.6544 707.708C45.6107 707.62 45.5844 707.525 45.5769 707.427C45.5694 707.329 45.581 707.231 45.6109 707.137C45.6408 707.044 45.6885 706.958 45.7512 706.883C45.8139 706.809 45.8904 706.748 45.9764 706.704C46.0623 706.659 46.1559 706.633 46.2519 706.625C46.348 706.618 46.4444 706.63 46.5359 706.661C46.6273 706.692 46.7119 706.741 46.7847 706.805L55.5654 714.485C55.6789 714.584 55.7597 714.716 55.7972 714.864C55.8346 715.011 55.8269 715.167 55.7749 715.31C55.723 715.453 55.6293 715.576 55.5066 715.663C55.3839 715.75 55.238 715.796 55.0885 715.796H55.0884Z" fill="#CCCCCC"/>
<path id="Vector_69" d="M111.432 720.793C111.432 713.476 114.284 706.458 119.361 701.284C124.439 696.109 131.325 693.203 138.505 693.203C145.686 693.203 152.572 696.109 157.649 701.284C162.727 706.458 165.579 713.476 165.579 720.793" fill="#F2F2F2"/>
<path id="Vector_70" d="M138.505 720.793C138.311 720.793 138.125 720.714 137.988 720.574C137.85 720.435 137.773 720.245 137.773 720.047V705.506C137.773 705.309 137.85 705.119 137.988 704.979C138.125 704.839 138.311 704.761 138.505 704.761C138.699 704.761 138.885 704.839 139.023 704.979C139.16 705.119 139.237 705.309 139.237 705.506V720.047C139.237 720.245 139.16 720.435 139.023 720.574C138.885 720.714 138.699 720.793 138.505 720.793V720.793Z" fill="#CCCCCC"/>
<path id="Vector_71" d="M138.505 715.796C138.33 715.796 138.161 715.733 138.029 715.617L129.248 707.936C129.101 707.808 129.01 707.625 128.995 707.427C128.981 707.23 129.043 707.035 129.17 706.885C129.296 706.735 129.476 706.642 129.669 706.627C129.863 706.612 130.054 706.676 130.202 706.805L138.982 714.485C139.096 714.584 139.177 714.716 139.214 714.864C139.251 715.011 139.244 715.167 139.192 715.31C139.14 715.453 139.046 715.576 138.923 715.663C138.801 715.75 138.655 715.796 138.505 715.796V715.796Z" fill="#CCCCCC"/>
<path id="Vector_72" d="M706.984 721.29L728.202 721.915L624.645 295.954L605.395 301.939L706.984 721.29Z" fill="#3F3D56"/>
<path id="Vector_73" d="M519.994 721.29L498.776 721.915L602.334 295.954L621.584 301.939L519.994 721.29Z" fill="#3F3D56"/>
<path id="Vector_74" d="M1064.71 660.388C1065.24 660.388 1065.76 660.172 1066.13 659.788C1066.51 659.403 1066.72 658.881 1066.72 658.337C1066.72 657.794 1066.51 657.272 1066.13 656.887C1065.76 656.503 1065.24 656.287 1064.71 656.287H1045.59V648.083H1064.71C1065.24 648.083 1065.76 647.867 1066.13 647.482C1066.51 647.098 1066.72 646.576 1066.72 646.032C1066.72 645.488 1066.51 644.966 1066.13 644.582C1065.76 644.197 1065.24 643.981 1064.71 643.981H901.698C901.164 643.981 900.652 644.197 900.275 644.582C899.897 644.966 899.685 645.488 899.685 646.032C899.685 646.576 899.897 647.098 900.275 647.482C900.652 647.867 901.164 648.083 901.698 648.083H920.816V656.287H901.698C901.164 656.287 900.652 656.503 900.275 656.887C899.897 657.272 899.685 657.794 899.685 658.337C899.685 658.881 899.897 659.403 900.275 659.788C900.652 660.172 901.164 660.388 901.698 660.388H920.816V668.592H901.698C901.164 668.592 900.652 668.808 900.275 669.193C899.897 669.577 899.685 670.099 899.685 670.643C899.685 671.187 899.897 671.708 900.275 672.093C900.652 672.478 901.164 672.694 901.698 672.694H920.816V680.897H903.71C902.643 680.897 901.619 681.329 900.864 682.099C900.109 682.868 899.685 683.911 899.685 684.999C899.685 686.087 900.109 687.13 900.864 687.899C901.619 688.669 902.643 689.101 903.71 689.101H919.995C919.876 689.429 919.814 689.776 919.81 690.126V718.839C919.81 719.655 920.128 720.437 920.694 721.014C921.26 721.591 922.028 721.915 922.829 721.915C923.63 721.915 924.397 721.591 924.964 721.014C925.53 720.437 925.848 719.655 925.848 718.839V690.126C925.844 689.776 925.782 689.429 925.663 689.101H1040.75C1040.63 689.429 1040.56 689.776 1040.56 690.126V718.839C1040.56 719.655 1040.88 720.437 1041.44 721.014C1042.01 721.591 1042.78 721.915 1043.58 721.915C1044.38 721.915 1045.15 721.591 1045.71 721.014C1046.28 720.437 1046.6 719.655 1046.6 718.839V690.126C1046.59 689.776 1046.53 689.429 1046.41 689.101H1062.7C1063.77 689.101 1064.79 688.669 1065.54 687.899C1066.3 687.13 1066.72 686.087 1066.72 684.999C1066.72 683.911 1066.3 682.868 1065.54 682.099C1064.79 681.329 1063.77 680.897 1062.7 680.897H1045.59V672.694H1064.71C1065.24 672.694 1065.76 672.478 1066.13 672.093C1066.51 671.708 1066.72 671.187 1066.72 670.643C1066.72 670.099 1066.51 669.577 1066.13 669.193C1065.76 668.808 1065.24 668.592 1064.71 668.592H1045.59V660.388H1064.71ZM924.841 648.083H1041.57V656.287H924.841V648.083ZM1041.57 680.897H924.841V672.694H1041.57V680.897ZM1041.57 668.592H924.841V660.388H1041.57V668.592Z" fill="#3F3D56"/>
<path id="Vector_75" d="M380.457 660.388C380.991 660.388 381.503 660.172 381.88 659.788C382.258 659.403 382.47 658.881 382.47 658.337C382.47 657.794 382.258 657.272 381.88 656.887C381.503 656.503 380.991 656.287 380.457 656.287H361.339V648.083H380.457C380.991 648.083 381.503 647.867 381.88 647.482C382.258 647.098 382.47 646.576 382.47 646.032C382.47 645.488 382.258 644.966 381.88 644.582C381.503 644.197 380.991 643.981 380.457 643.981H217.444C216.91 643.981 216.399 644.197 216.021 644.582C215.644 644.966 215.432 645.488 215.432 646.032C215.432 646.576 215.644 647.098 216.021 647.482C216.399 647.867 216.91 648.083 217.444 648.083H236.563V656.287H217.444C216.91 656.287 216.399 656.503 216.021 656.887C215.644 657.272 215.432 657.794 215.432 658.337C215.432 658.881 215.644 659.403 216.021 659.788C216.399 660.172 216.91 660.388 217.444 660.388H236.563V668.592H217.444C216.91 668.592 216.399 668.808 216.021 669.193C215.644 669.577 215.432 670.099 215.432 670.643C215.432 671.187 215.644 671.708 216.021 672.093C216.399 672.478 216.91 672.694 217.444 672.694H236.563V680.897H219.457C218.389 680.897 217.365 681.329 216.611 682.099C215.856 682.868 215.432 683.911 215.432 684.999C215.432 686.087 215.856 687.13 216.611 687.899C217.365 688.669 218.389 689.101 219.457 689.101H235.741C235.623 689.429 235.56 689.776 235.557 690.126V718.839C235.557 719.655 235.875 720.437 236.441 721.014C237.007 721.591 237.775 721.915 238.576 721.915C239.376 721.915 240.144 721.591 240.71 721.014C241.276 720.437 241.594 719.655 241.594 718.839V690.126C241.591 689.776 241.528 689.429 241.41 689.101H356.492C356.373 689.429 356.311 689.776 356.307 690.126V718.839C356.307 719.655 356.625 720.437 357.192 721.014C357.758 721.591 358.525 721.915 359.326 721.915C360.127 721.915 360.895 721.591 361.461 721.014C362.027 720.437 362.345 719.655 362.345 718.839V690.126C362.341 689.776 362.279 689.429 362.16 689.101H378.445C379.512 689.101 380.536 688.669 381.291 687.899C382.046 687.13 382.47 686.087 382.47 684.999C382.47 683.911 382.046 682.868 381.291 682.099C380.536 681.329 379.512 680.897 378.445 680.897H361.339V672.694H380.457C380.991 672.694 381.503 672.478 381.88 672.093C382.258 671.708 382.47 671.187 382.47 670.643C382.47 670.099 382.258 669.577 381.88 669.193C381.503 668.808 380.991 668.592 380.457 668.592H361.339V660.388H380.457ZM240.588 648.083H357.314V656.287H240.588V648.083ZM357.314 680.897H240.588V672.694H357.314V680.897ZM357.314 668.592H240.588V660.388H357.314V668.592Z" fill="#3F3D56"/>
<path id="Vector_76" d="M1014.4 649.108H1008.36C1007.56 649.108 1006.79 648.783 1006.23 648.206C1005.66 647.63 1005.34 646.848 1005.34 646.032V639.879C1005.34 639.064 1005.66 638.282 1006.23 637.705C1006.79 637.128 1007.56 636.804 1008.36 636.803H1014.4C1015.2 636.804 1015.97 637.128 1016.53 637.705C1017.1 638.282 1017.42 639.064 1017.42 639.879V646.032C1017.42 646.848 1017.1 647.63 1016.53 648.206C1015.97 648.783 1015.2 649.108 1014.4 649.108Z" fill="#CCCCCC"/>
<path id="Vector_77" d="M1429.86 725.068H2.39624C1.76072 725.068 1.15123 724.81 0.701842 724.352C0.252457 723.894 0 723.273 0 722.626C0 721.978 0.252457 721.357 0.701842 720.899C1.15123 720.441 1.76072 720.184 2.39624 720.184H1429.86C1430.49 720.184 1431.1 720.441 1431.55 720.899C1432 721.357 1432.25 721.978 1432.25 722.626C1432.25 723.273 1432 723.894 1431.55 724.352C1431.1 724.81 1430.49 725.068 1429.86 725.068V725.068Z" fill="#CCCCCC"/>
<path id="Vector_78" d="M1113.87 720.699L1109.3 720.697L1107.12 702.704H1113.87V720.699Z" fill="#A0616A"/>
<path id="Vector_79" d="M1105.37 719.365H1114.85V725.03H1100.47V724.365C1100.47 723.708 1100.59 723.058 1100.84 722.452C1101.09 721.845 1101.45 721.294 1101.9 720.83C1102.36 720.365 1102.9 719.997 1103.5 719.746C1104.09 719.494 1104.73 719.365 1105.37 719.365V719.365Z" fill="#2F2E41"/>
<path id="Vector_80" d="M1147.09 715.414L1142.92 717.352L1133.61 701.909L1139.75 699.048L1147.09 715.414Z" fill="#A0616A"/>
<path id="Vector_81" d="M1138.81 717.8L1147.44 713.786L1149.74 718.939L1136.66 725.03L1136.39 724.425C1136.12 723.828 1135.97 723.183 1135.95 722.527C1135.92 721.871 1136.03 721.216 1136.25 720.601C1136.48 719.986 1136.82 719.422 1137.26 718.941C1137.7 718.461 1138.23 718.073 1138.81 717.8Z" fill="#2F2E41"/>
<path id="Vector_82" d="M1113.58 715.954H1109.21C1108.78 715.952 1108.38 715.788 1108.07 715.494C1107.76 715.199 1107.56 714.797 1107.53 714.366L1105.15 649.469C1105.13 649.22 1105.17 648.97 1105.25 648.737C1105.34 648.504 1105.48 648.293 1105.65 648.119C1105.83 647.945 1106.04 647.812 1106.27 647.729C1106.5 647.647 1106.74 647.616 1106.99 647.641L1132.28 650.378C1132.69 650.419 1133.07 650.611 1133.35 650.92C1133.63 651.228 1133.79 651.63 1133.79 652.049L1134.32 680.676C1134.33 680.832 1134.36 680.985 1134.41 681.13L1144.79 708.546C1144.87 708.758 1144.9 708.984 1144.9 709.211C1144.89 709.438 1144.84 709.661 1144.75 709.868C1144.66 710.075 1144.53 710.261 1144.36 710.415C1144.2 710.57 1144.01 710.69 1143.8 710.768L1139.37 712.432C1138.98 712.577 1138.56 712.573 1138.18 712.421C1137.79 712.269 1137.48 711.981 1137.29 711.609L1124.55 686.356C1124.48 686.218 1124.43 686.072 1124.4 685.921L1122.22 675.231C1122.16 674.921 1121.99 674.645 1121.74 674.45C1121.5 674.256 1121.19 674.157 1120.88 674.172C1120.57 674.186 1120.28 674.313 1120.05 674.529C1119.82 674.745 1119.68 675.036 1119.64 675.35L1115.25 714.436C1115.2 714.854 1115.01 715.24 1114.7 715.519C1114.39 715.799 1113.99 715.954 1113.58 715.954V715.954Z" fill="#2F2E41"/>
<path id="Vector_83" d="M1115.76 598.726C1120.82 598.726 1124.93 594.542 1124.93 589.381C1124.93 584.219 1120.82 580.035 1115.76 580.035C1110.69 580.035 1106.59 584.219 1106.59 589.381C1106.59 594.542 1110.69 598.726 1115.76 598.726Z" fill="#A0616A"/>
<path id="Vector_84" d="M1122.08 655.391C1116.17 655.316 1110.38 653.63 1105.32 650.509V650.509C1105.06 650.345 1104.85 650.112 1104.71 649.834C1104.57 649.557 1104.51 649.245 1104.53 648.934L1106.76 616.45C1106.9 614.258 1107.55 612.13 1108.64 610.237C1109.73 608.344 1111.25 606.738 1113.06 605.548C1114.79 604.381 1116.77 603.642 1118.83 603.392C1120.89 603.141 1122.98 603.386 1124.93 604.106C1125.79 604.409 1126.61 604.839 1127.35 605.381C1129.72 607.107 1131.59 609.464 1132.74 612.195C1133.89 614.927 1134.29 617.928 1133.88 620.872C1132.24 633.512 1134.1 650.562 1134.31 652.464L1134.33 652.601L1134.21 652.659C1130.41 654.458 1126.27 655.391 1122.08 655.391Z" fill="#6C63FF"/>
<path id="Vector_85" d="M1133.76 660.031C1134.19 659.694 1134.56 659.264 1134.81 658.77C1135.07 658.277 1135.22 657.731 1135.25 657.172C1135.28 656.614 1135.18 656.056 1134.98 655.537C1134.77 655.019 1134.46 654.553 1134.05 654.172L1139.44 641.73L1132.6 642.91L1128.54 654.544C1127.95 655.275 1127.65 656.198 1127.69 657.139C1127.74 658.08 1128.11 658.973 1128.76 659.649C1129.4 660.326 1130.26 660.738 1131.18 660.808C1132.11 660.879 1133.02 660.602 1133.76 660.031V660.031Z" fill="#A0616A"/>
<path id="Vector_86" d="M1134.27 652.345C1134.04 652.345 1133.81 652.296 1133.6 652.2C1133.38 652.104 1133.19 651.964 1133.03 651.789L1131.03 649.559C1130.83 649.341 1130.7 649.075 1130.63 648.788C1130.57 648.5 1130.57 648.2 1130.66 647.917L1135.25 632.07L1128.26 617.111C1127.95 616.453 1127.88 615.708 1128.05 615.001C1128.2 614.38 1128.53 613.819 1128.99 613.394C1129.46 612.968 1130.05 612.696 1130.67 612.615C1131.29 612.534 1131.92 612.648 1132.48 612.94C1133.04 613.232 1133.5 613.69 1133.79 614.253L1143.24 629.878C1143.61 630.486 1143.83 631.175 1143.87 631.887C1143.92 632.599 1143.79 633.311 1143.5 633.961L1135.8 651.337C1135.69 651.595 1135.52 651.821 1135.29 651.993C1135.07 652.165 1134.81 652.279 1134.54 652.323C1134.45 652.337 1134.36 652.345 1134.27 652.345Z" fill="#6C63FF"/>
<path id="Vector_87" d="M1123.31 597.62C1122.36 597.786 1121.58 596.437 1121.46 595.488C1121.47 594.549 1121.56 593.613 1121.72 592.688C1121.77 592.197 1121.67 591.701 1121.43 591.275C1121.18 590.848 1120.81 590.514 1120.36 590.321C1119.35 590.028 1118.42 590.851 1117.39 590.752C1115.95 590.614 1115.23 588.901 1115.06 587.515C1114.88 586.128 1114.75 584.487 1113.5 583.697C1112.26 582.909 1110.73 583.482 1109.3 583.507C1108.08 583.493 1106.9 583.084 1105.93 582.34C1104.95 581.595 1104.23 580.554 1103.88 579.366C1104.17 579.452 1104.48 579.436 1104.76 579.32C1105.05 579.205 1105.28 578.997 1105.44 578.73C1105.56 578.444 1105.58 578.126 1105.51 577.825C1105.43 577.523 1105.26 577.256 1105.02 577.064L1107.75 578.426C1107.68 578.234 1107.65 578.029 1107.66 577.825C1107.68 577.621 1107.73 577.421 1107.82 577.238C1107.91 577.056 1108.04 576.894 1108.19 576.763C1108.34 576.632 1108.52 576.535 1108.72 576.478C1109.55 576.254 1110.42 576.245 1111.25 576.452C1115.53 577.129 1120.48 576.795 1123.31 580.117C1125.45 582.812 1126.64 586.163 1126.67 589.629C1126 592.464 1124.86 595.164 1123.31 597.62V597.62Z" fill="#2F2E41"/>
<path id="Vector_88" d="M1074.69 613.551C1075.17 613.274 1075.7 613.107 1076.24 613.062C1076.79 613.017 1077.34 613.095 1077.86 613.29C1078.37 613.484 1078.84 613.792 1079.22 614.19C1079.61 614.589 1079.9 615.068 1080.09 615.596L1093.43 615.498L1089.65 621.424L1077.56 620.609C1076.67 620.864 1075.72 620.779 1074.89 620.368C1074.06 619.957 1073.4 619.25 1073.05 618.38C1072.69 617.51 1072.67 616.538 1072.97 615.648C1073.27 614.758 1073.88 614.012 1074.69 613.551V613.551Z" fill="#A0616A"/>
<path id="Vector_89" d="M1081.63 620.011C1081.58 619.779 1081.58 619.539 1081.63 619.307C1081.68 619.075 1081.78 618.856 1081.91 618.664L1083.65 616.208C1083.82 615.969 1084.04 615.778 1084.31 615.654C1084.57 615.531 1084.86 615.478 1085.15 615.501L1100.75 614.835L1114.25 606.829C1114.82 606.389 1115.52 606.162 1116.24 606.186C1116.86 606.208 1117.47 606.424 1117.97 606.804C1118.48 607.183 1118.86 607.71 1119.06 608.315C1119.27 608.919 1119.29 609.572 1119.12 610.188C1118.95 610.804 1118.61 611.354 1118.13 611.766L1105.04 624.38C1104.53 624.87 1103.92 625.226 1103.24 625.416C1102.57 625.606 1101.86 625.624 1101.17 625.469L1082.91 621.335C1082.64 621.274 1082.39 621.145 1082.18 620.96C1081.97 620.774 1081.81 620.539 1081.71 620.274C1081.67 620.188 1081.65 620.1 1081.63 620.011V620.011Z" fill="#6C63FF"/>
<path id="Vector_90" d="M852.203 713.035C852.392 712.493 852.462 711.914 852.408 711.341C852.354 710.768 852.177 710.213 851.89 709.717C851.603 709.221 851.213 708.795 850.747 708.469C850.281 708.144 849.75 707.926 849.193 707.832L846.875 694.033L841.664 699.005L844.664 711.346C844.57 712.311 844.828 713.278 845.387 714.062C845.946 714.847 846.768 715.395 847.697 715.603C848.626 715.812 849.598 715.665 850.429 715.192C851.259 714.719 851.891 713.951 852.203 713.035V713.035Z" fill="#FFB8B8"/>
<path id="Vector_91" d="M848.741 706.434L843.625 707.802C843.381 707.866 843.123 707.83 842.904 707.703C842.686 707.576 842.525 707.367 842.456 707.121L833.262 673.926L830.485 665.458C830.217 664.642 830.156 663.771 830.308 662.924C830.46 662.078 830.819 661.285 831.353 660.618C831.887 659.951 832.577 659.433 833.36 659.111C834.143 658.789 834.993 658.675 835.831 658.778V658.778C836.801 658.897 837.716 659.302 838.462 659.945C839.209 660.588 839.754 661.439 840.031 662.394L847.377 687.699L849.451 705.37C849.473 705.566 849.437 705.765 849.347 705.941C849.257 706.116 849.117 706.259 848.946 706.352C848.881 706.387 848.812 706.415 848.741 706.434V706.434Z" fill="#6C63FF"/>
<path id="Vector_92" d="M830.044 653.178C835.258 653.178 839.486 648.87 839.486 643.556C839.486 638.242 835.258 633.934 830.044 633.934C824.829 633.934 820.602 638.242 820.602 643.556C820.602 648.87 824.829 653.178 830.044 653.178Z" fill="#FFB8B8"/>
<path id="Vector_93" d="M802.243 775.189L797.725 773.819L800.759 755.41L807.427 757.433L802.243 775.189Z" fill="#FFB8B8"/>
<path id="Vector_94" d="M802.092 780L787.526 775.583L787.581 775.396C787.802 774.637 788.168 773.93 788.658 773.316C789.147 772.701 789.751 772.191 790.434 771.814C791.117 771.437 791.866 771.201 792.639 771.119C793.411 771.037 794.192 771.111 794.937 771.337H794.937L803.833 774.035L802.092 780Z" fill="#2F2E41"/>
<path id="Vector_95" d="M851.734 774.953L847.021 774.951L844.779 756.426L849.428 756.428L851.734 774.953Z" fill="#FFB8B8"/>
<path id="Vector_96" d="M852.936 779.608L837.739 779.608V779.412C837.739 778.62 837.892 777.836 838.189 777.105C838.486 776.374 838.922 775.709 839.471 775.149C840.021 774.59 840.673 774.146 841.39 773.843C842.108 773.54 842.877 773.384 843.654 773.384H843.654L852.936 773.384L852.936 779.608Z" fill="#2F2E41"/>
<path id="Vector_97" d="M803.98 769.742H799.248C798.995 769.742 798.744 769.685 798.514 769.575C798.285 769.465 798.081 769.306 797.919 769.107C797.757 768.908 797.639 768.676 797.575 768.426C797.51 768.176 797.501 767.914 797.547 767.66C794.529 766.292 810.777 686.884 814.616 688.423L814.743 688.238L834.075 689.845C842.734 707.506 848.215 736.729 853.344 767.236C853.407 767.489 853.414 767.754 853.364 768.01C853.315 768.266 853.21 768.508 853.058 768.718C852.905 768.928 852.709 769.101 852.483 769.224C852.257 769.347 852.007 769.418 851.751 769.431L846.434 769.694C846.074 769.713 845.717 769.616 845.414 769.418C845.111 769.219 844.876 768.929 844.744 768.588L824.373 716.691C824.333 716.578 824.258 716.481 824.159 716.414C824.06 716.348 823.943 716.315 823.824 716.322C823.706 716.323 823.592 716.362 823.497 716.433C823.401 716.503 823.33 716.603 823.293 716.717L805.615 768.558C805.496 768.903 805.275 769.203 804.983 769.415C804.69 769.627 804.34 769.742 803.98 769.742V769.742Z" fill="#2F2E41"/>
<path id="Vector_98" d="M834.48 691.399L834.332 691.388L813.749 689.805L817.359 666.405C817.756 663.793 818.97 661.382 820.821 659.531C822.673 657.68 825.062 656.489 827.632 656.135V656.135C827.79 656.113 827.95 656.09 828.11 656.069C830.129 655.798 832.183 656.061 834.073 656.832C835.964 657.603 837.629 658.857 838.907 660.473C840.216 662.097 841.093 664.038 841.453 666.108C841.813 668.178 841.646 670.307 840.965 672.292L834.48 691.399Z" fill="#6C63FF"/>
<path id="Vector_99" d="M848.378 654.563C841.885 657.589 833.076 657.048 823.005 654.563C824.399 650.673 825.485 646.915 824.253 644.157C823.756 643.116 823.475 641.981 823.428 640.824C823.382 639.667 823.57 638.512 823.983 637.433C824.948 635.08 826.575 633.07 828.658 631.657C830.742 630.243 833.189 629.489 835.692 629.49V629.49C839.056 629.49 842.283 630.852 844.662 633.276C847.041 635.701 848.378 638.989 848.378 642.418L848.378 654.563Z" fill="#2F2E41"/>
<path id="Vector_100" d="M827.551 630.369H834.539V640.487H817.624C817.624 639.158 817.88 637.842 818.379 636.615C818.878 635.387 819.609 634.272 820.531 633.333C821.453 632.393 822.548 631.648 823.752 631.139C824.957 630.631 826.248 630.369 827.551 630.369V630.369Z" fill="#2F2E41"/>
<path id="Vector_101" d="M813.304 715.212C813.721 714.823 814.049 714.345 814.265 713.813C814.481 713.281 814.579 712.707 814.554 712.131C814.528 711.556 814.38 710.993 814.118 710.483C813.856 709.972 813.487 709.527 813.038 709.177L817.336 695.88L810.446 697.784L807.421 710.119C806.895 710.927 806.678 711.904 806.811 712.864C806.944 713.824 807.418 714.701 808.143 715.329C808.868 715.956 809.794 716.291 810.746 716.27C811.697 716.248 812.607 715.872 813.304 715.212V715.212Z" fill="#FFB8B8"/>
<path id="Vector_102" d="M813.281 707.726L808.133 706.492C807.888 706.432 807.676 706.277 807.542 706.061C807.408 705.844 807.361 705.583 807.413 705.332L814.557 671.617L815.997 662.81C816.136 661.962 816.483 661.163 817.006 660.488C817.53 659.812 818.212 659.283 818.99 658.949C819.768 658.615 820.616 658.487 821.456 658.576C822.295 658.666 823.099 658.971 823.792 659.462C824.595 660.03 825.216 660.826 825.58 661.75C825.944 662.674 826.034 663.686 825.839 664.662L820.692 690.525L814.398 707.126C814.328 707.31 814.204 707.469 814.044 707.58C813.884 707.692 813.694 707.752 813.5 707.752C813.426 707.752 813.353 707.744 813.281 707.726V707.726Z" fill="#6C63FF"/>
<path id="Vector_103" d="M972.402 634.452C972.203 634.504 972.008 634.572 971.82 634.655L956.351 624.486L956.564 619.934L949.865 618.708L948.719 626.729C948.626 627.377 948.742 628.038 949.05 628.613C949.357 629.188 949.839 629.646 950.424 629.918L969.476 638.781C969.57 639.581 969.902 640.333 970.427 640.937C970.951 641.541 971.643 641.967 972.412 642.16C973.18 642.353 973.988 642.303 974.727 642.017C975.467 641.731 976.104 641.222 976.553 640.558C977.001 639.894 977.241 639.106 977.24 638.3C977.239 637.493 976.997 636.706 976.547 636.044C976.096 635.381 975.458 634.874 974.718 634.589C973.977 634.305 973.169 634.257 972.402 634.452H972.402Z" fill="#FFB8B8"/>
<path id="Vector_104" d="M955.72 624.205L947.424 622.645C947.188 622.6 946.964 622.505 946.767 622.364C946.571 622.224 946.406 622.041 946.285 621.83C946.164 621.619 946.089 621.384 946.065 621.141C946.041 620.897 946.069 620.651 946.147 620.42L948.869 612.31C949.096 611.078 949.794 609.988 950.809 609.28C951.825 608.573 953.075 608.305 954.284 608.536C955.493 608.767 956.562 609.479 957.257 610.513C957.952 611.548 958.214 612.822 957.988 614.054L957.692 622.592C957.684 622.836 957.624 623.076 957.516 623.295C957.408 623.513 957.256 623.706 957.068 623.859C956.881 624.012 956.664 624.122 956.431 624.182C956.198 624.242 955.956 624.25 955.72 624.205V624.205Z" fill="#3F3D56"/>
<path id="Vector_105" d="M984.567 602.21C984.522 602.414 984.492 602.621 984.478 602.83L968.533 612.204L964.658 609.93L960.526 615.443L967.003 620.147C967.526 620.527 968.157 620.724 968.799 620.708C969.441 620.692 970.061 620.464 970.566 620.059L987.008 606.84C987.75 607.12 988.558 607.163 989.325 606.963C990.092 606.764 990.78 606.331 991.3 605.723C991.819 605.115 992.145 604.36 992.233 603.559C992.321 602.757 992.168 601.948 991.793 601.237C991.419 600.527 990.841 599.95 990.137 599.582C989.432 599.215 988.635 599.074 987.851 599.18C987.066 599.285 986.332 599.632 985.745 600.173C985.159 600.714 984.748 601.425 984.567 602.21L984.567 602.21Z" fill="#FFB8B8"/>
<path id="Vector_106" d="M968.001 612.648L962.847 619.455C962.701 619.648 962.515 619.807 962.302 619.921C962.09 620.035 961.856 620.101 961.616 620.114C961.376 620.128 961.137 620.088 960.913 619.999C960.69 619.909 960.488 619.772 960.322 619.596L954.488 613.422C953.516 612.653 952.883 611.522 952.73 610.278C952.576 609.034 952.913 607.779 953.668 606.789C954.422 605.798 955.532 605.154 956.752 604.997C957.973 604.841 959.205 605.185 960.177 605.953L967.494 610.123C967.703 610.242 967.885 610.406 968.027 610.604C968.168 610.801 968.267 611.028 968.315 611.267C968.363 611.507 968.359 611.754 968.305 611.992C968.251 612.231 968.147 612.454 968.001 612.648V612.648Z" fill="#CCCCCC"/>
<path id="Vector_107" d="M946.896 596.396C951.931 596.396 956.013 592.237 956.013 587.106C956.013 581.975 951.931 577.815 946.896 577.815C941.861 577.815 937.78 581.975 937.78 587.106C937.78 592.237 941.861 596.396 946.896 596.396Z" fill="#FFB8B8"/>
<path id="Vector_108" d="M955.503 720.131H960.054L962.217 702.243H955.501L955.503 720.131Z" fill="#FFB8B8"/>
<path id="Vector_109" d="M954.341 718.616L963.303 718.616H963.304C964.054 718.616 964.796 718.767 965.489 719.059C966.182 719.352 966.812 719.78 967.342 720.321C967.872 720.861 968.293 721.503 968.58 722.209C968.867 722.915 969.015 723.672 969.015 724.436V724.625L954.342 724.626L954.341 718.616Z" fill="#2F2E41"/>
<path id="Vector_110" d="M939.912 720.131H944.462L946.628 702.243H939.912V720.131Z" fill="#FFB8B8"/>
<path id="Vector_111" d="M938.752 718.616L947.714 718.616H947.714C948.464 718.616 949.207 718.767 949.9 719.059C950.593 719.352 951.222 719.78 951.753 720.321C952.283 720.861 952.704 721.503 952.991 722.209C953.278 722.915 953.425 723.672 953.425 724.436V724.625L938.752 724.626L938.752 718.616Z" fill="#2F2E41"/>
<path id="Vector_112" d="M954.137 713.342L949.495 676.743C949.493 676.695 949.472 676.649 949.437 676.616C949.402 676.583 949.355 676.565 949.307 676.567C949.283 676.566 949.26 676.57 949.237 676.579C949.215 676.587 949.195 676.601 949.178 676.618C949.161 676.635 949.147 676.655 949.138 676.678C949.129 676.7 949.124 676.724 949.125 676.749L947.791 712.816C947.776 713.257 947.593 713.674 947.282 713.98C946.97 714.286 946.554 714.456 946.121 714.454H940.609C940.173 714.457 939.753 714.284 939.44 713.973C939.127 713.662 938.948 713.238 938.94 712.793L937.509 652.7L962.176 652.951L962.792 713.238C962.787 713.477 962.732 713.713 962.631 713.929C962.53 714.146 962.385 714.338 962.206 714.494C962.031 714.647 961.826 714.762 961.605 714.829C961.384 714.897 961.151 714.917 960.922 714.887L955.577 714.902C955.198 714.849 954.848 714.665 954.586 714.381C954.324 714.097 954.166 713.731 954.137 713.342V713.342Z" fill="#2F2E41"/>
<path id="Vector_113" d="M937.143 654.344C936.867 654.236 936.624 654.056 936.439 653.821C936.254 653.586 936.133 653.306 936.089 653.008L935.843 619.982C934.753 612.629 933.463 605.423 939.772 601.698L940.328 599.998C940.389 599.814 940.503 599.654 940.655 599.538C940.808 599.423 940.992 599.358 941.182 599.351L953.15 599.003C953.336 598.997 953.52 599.048 953.677 599.15C953.834 599.252 953.957 599.401 954.029 599.576L954.919 601.693L955.236 601.876C958.242 603.623 960.677 606.234 962.235 609.384C963.793 612.533 964.405 616.081 963.995 619.583L963.311 625.47L962.824 652.985C962.818 653.287 962.734 653.582 962.58 653.84C962.426 654.098 962.208 654.31 961.948 654.455C958.563 656.248 954.789 657.144 950.974 657.058C946.245 656.971 941.566 656.053 937.143 654.344Z" fill="#CCCCCC"/>
<path id="Vector_114" d="M946.6 596.741C945.228 596.771 943.865 596.505 942.601 595.96C941.337 595.415 940.2 594.604 939.266 593.58C938.331 592.555 937.62 591.341 937.179 590.017C936.738 588.692 936.577 587.288 936.706 585.895C936.835 584.503 937.253 583.154 937.93 581.938C938.607 580.722 939.53 579.665 940.636 578.838C941.743 578.011 943.009 577.431 944.351 577.138C945.693 576.845 947.08 576.845 948.422 577.137C950.397 575.813 952.733 575.16 955.094 575.274C956.269 575.349 957.401 575.746 958.373 576.423C959.344 577.099 960.119 578.03 960.615 579.118C961.056 580.227 961.071 581.466 960.656 582.586C960.241 583.706 959.428 584.626 958.377 585.162C956.926 585.589 955.389 585.611 953.926 585.226C952.458 584.842 950.905 584.982 949.525 585.622C948.232 586.404 947.65 588.499 948.809 589.476C949.423 590.015 949.861 590.731 950.066 591.53C950.27 592.329 950.231 593.172 949.953 593.947C949.682 594.67 949.229 595.309 948.641 595.798C948.053 596.288 947.349 596.613 946.6 596.741Z" fill="#2F2E41"/>
<path id="Vector_115" d="M417.928 774.777H422.363L424.473 757.344H417.926L417.928 774.777Z" fill="#FFB8B8"/>
<path id="Vector_116" d="M415.971 780L415.971 772.461L425.53 772.46C427.225 772.462 428.849 773.149 430.047 774.37C431.246 775.591 431.92 777.247 431.922 778.974V779.999L415.971 780Z" fill="#2F2E41"/>
<path id="Vector_117" d="M394.024 774.777H398.457L400.566 757.344H394.021L394.024 774.777Z" fill="#FFB8B8"/>
<path id="Vector_118" d="M392.066 780L392.066 772.461L401.625 772.46C403.32 772.462 404.944 773.149 406.143 774.37C407.341 775.591 408.015 777.247 408.017 778.974V779.999L392.066 780Z" fill="#2F2E41"/>
<path id="Vector_119" d="M407.011 650.85C412.273 650.85 416.539 646.503 416.539 641.14C416.539 635.778 412.273 631.431 407.011 631.431C401.749 631.431 397.483 635.778 397.483 641.14C397.483 646.503 401.749 650.85 407.011 650.85Z" fill="#FFB8B8"/>
<path id="Vector_120" d="M439.591 704.464C439.524 703.927 439.343 703.41 439.059 702.952C438.776 702.493 438.397 702.104 437.95 701.811C437.503 701.517 436.998 701.328 436.471 701.255C435.944 701.182 435.408 701.228 434.9 701.389L429.575 694.884L424.907 697.217L432.553 706.296C432.875 707.147 433.493 707.849 434.289 708.267C435.084 708.685 436.003 708.792 436.87 708.566C437.738 708.34 438.494 707.798 438.995 707.042C439.497 706.286 439.709 705.369 439.591 704.464V704.464Z" fill="#FFB8B8"/>
<path id="Vector_121" d="M393.762 711.043C393.989 710.553 394.108 710.018 394.11 709.476C394.112 708.934 393.998 708.399 393.775 707.907C393.552 707.415 393.225 706.979 392.819 706.629C392.413 706.279 391.936 706.025 391.423 705.883L390.354 697.482L385.186 696.899L386.859 708.741C386.683 709.636 386.835 710.565 387.286 711.353C387.737 712.141 388.456 712.733 389.307 713.017C390.158 713.301 391.082 713.257 391.903 712.893C392.724 712.529 393.386 711.871 393.762 711.043H393.762Z" fill="#FFB8B8"/>
<path id="Vector_122" d="M399.048 659.48C398.541 658.817 397.872 658.302 397.107 657.987C396.343 657.672 395.511 657.568 394.694 657.685C393.878 657.803 393.106 658.138 392.457 658.656C391.808 659.175 391.305 659.859 390.998 660.639L383.189 680.5C382.39 682.53 382.136 684.739 382.451 686.902L384.995 704.36C385.028 704.585 385.108 704.8 385.23 704.991C385.352 705.182 385.513 705.343 385.702 705.465C385.891 705.586 386.103 705.665 386.325 705.695C386.546 705.725 386.772 705.706 386.985 705.639L390.337 704.59C390.684 704.482 390.983 704.252 391.181 703.943C391.379 703.633 391.465 703.262 391.422 702.894V702.894C390.24 692.617 391.803 682.204 395.947 672.757L399.629 664.365C399.976 663.574 400.105 662.701 400.003 661.841C399.901 660.98 399.571 660.164 399.048 659.48V659.48Z" fill="#CCCCCC"/>
<path id="Vector_123" d="M404.691 650.85C403.257 650.881 401.833 650.603 400.512 650.034C399.191 649.465 398.003 648.617 397.026 647.546C396.05 646.476 395.306 645.207 394.845 643.823C394.384 642.438 394.216 640.971 394.351 639.515C394.486 638.06 394.922 636.651 395.63 635.379C396.338 634.108 397.302 633.004 398.458 632.139C399.615 631.275 400.938 630.669 402.34 630.363C403.743 630.057 405.193 630.056 406.596 630.362C408.66 628.978 411.101 628.296 413.569 628.415C414.796 628.493 415.98 628.908 416.995 629.615C418.011 630.322 418.82 631.295 419.338 632.432C419.799 633.592 419.815 634.886 419.382 636.056C418.948 637.227 418.098 638.188 417 638.748C415.483 639.195 413.877 639.218 412.348 638.816C410.813 638.415 409.19 638.561 407.748 639.23C406.396 640.047 405.789 642.237 406.999 643.258C407.641 643.821 408.1 644.569 408.313 645.404C408.527 646.239 408.486 647.12 408.196 647.931C407.912 648.686 407.439 649.353 406.824 649.865C406.209 650.377 405.474 650.717 404.691 650.85V650.85Z" fill="#2F2E41"/>
<path id="Vector_124" d="M392.869 704.08L391.179 769.445C391.174 769.663 391.212 769.879 391.293 770.081C391.373 770.283 391.494 770.466 391.647 770.618C391.8 770.77 391.982 770.889 392.182 770.966C392.382 771.043 392.596 771.077 392.81 771.066L398.377 770.776C398.732 770.758 399.071 770.615 399.335 770.373C399.6 770.131 399.775 769.803 399.831 769.445L406.453 726.99C406.481 726.809 406.571 726.643 406.706 726.521C406.842 726.4 407.015 726.33 407.195 726.324C407.376 726.319 407.552 726.377 407.695 726.49C407.838 726.603 407.937 726.763 407.977 726.942L416.941 767.819C416.989 768.037 417.082 768.243 417.213 768.422C417.345 768.601 417.513 768.75 417.705 768.858C417.897 768.966 418.11 769.031 418.329 769.05C418.548 769.068 418.768 769.039 418.975 768.964L424.501 768.62C424.82 768.504 425.094 768.284 425.28 767.995C425.465 767.706 425.553 767.362 425.529 767.017L420.705 703.462L392.869 704.08Z" fill="#2F2E41"/>
<path id="Vector_125" d="M390.157 673.034C389.921 670.678 390.148 668.297 390.825 666.03C391.503 663.764 392.617 661.658 394.102 659.836C395.588 658.014 397.415 656.512 399.477 655.418C401.539 654.324 403.795 653.66 406.111 653.465C410.308 653.161 416.823 653.053 418.971 658.658C425.441 675.545 414.115 675.134 418.017 689.764C421.919 704.395 425.366 705.233 420.011 706.29C414.657 707.346 390.58 713.582 391.569 703.285C392.176 696.955 391.087 682.915 390.157 673.034Z" fill="#CCCCCC"/>
<path id="Vector_126" d="M417.825 656.941C417.056 656.637 416.222 656.546 415.408 656.676C414.593 656.806 413.826 657.153 413.185 657.681C412.544 658.21 412.051 658.901 411.756 659.686C411.461 660.471 411.374 661.321 411.504 662.151L414.545 681.518C415.065 684.83 416.44 687.942 418.527 690.535L428.404 702.8C428.546 702.976 428.723 703.118 428.924 703.218C429.125 703.318 429.345 703.372 429.568 703.377C429.791 703.383 430.013 703.339 430.218 703.248C430.424 703.158 430.607 703.024 430.757 702.855L433.103 700.2C433.346 699.925 433.486 699.572 433.5 699.202C433.514 698.832 433.4 698.469 433.179 698.176L432.488 697.262C426.742 689.664 423.117 680.624 421.996 671.1L420.787 660.827C420.686 659.966 420.357 659.15 419.835 658.465C419.313 657.781 418.618 657.254 417.825 656.941V656.941Z" fill="#CCCCCC"/>
<path id="Vector_127" d="M440.045 708.965C440.534 708.717 440.964 708.363 441.304 707.927C441.644 707.491 441.886 706.985 442.014 706.444C442.141 705.903 442.151 705.339 442.041 704.794C441.932 704.249 441.707 703.734 441.381 703.287L444.175 675.448H438.137L435.917 702.631C435.216 703.238 434.758 704.086 434.63 705.014C434.501 705.942 434.711 706.886 435.22 707.667C435.729 708.448 436.501 709.011 437.391 709.25C438.28 709.489 439.224 709.388 440.045 708.965V708.965Z" fill="#A0616A"/>
<path id="Vector_128" d="M445.589 660.084C450.307 660.084 454.132 656.187 454.132 651.379C454.132 646.571 450.307 642.673 445.589 642.673C440.871 642.673 437.046 646.571 437.046 651.379C437.046 656.187 440.871 660.084 445.589 660.084Z" fill="#A0616A"/>
<path id="Vector_129" d="M447.197 691.661C446.855 691.661 446.522 691.546 446.25 691.335C445.978 691.124 445.782 690.827 445.691 690.491C444.257 686.111 442.488 681.853 440.399 677.756C439.761 676.418 439.407 674.959 439.362 673.472C439.317 671.986 439.58 670.506 440.135 669.131C440.69 667.756 441.524 666.516 442.583 665.492C443.641 664.468 444.9 663.684 446.277 663.191V663.191C447.582 662.722 448.966 662.524 450.347 662.609C451.728 662.694 453.078 663.061 454.318 663.687C455.558 664.313 456.661 665.186 457.564 666.255C458.467 667.324 459.15 668.566 459.573 669.908C461.177 675.556 461.832 681.44 461.512 687.31C461.493 687.659 461.363 687.993 461.141 688.259C460.919 688.526 460.618 688.711 460.283 688.786L447.533 691.624C447.422 691.648 447.31 691.661 447.197 691.661V691.661Z" fill="#6C63FF"/>
<path id="Vector_130" d="M459.544 774.33H463.808L465.837 757.568H459.542L459.544 774.33Z" fill="#A0616A"/>
<path id="Vector_131" d="M473.038 779.39H457.624L457.624 772.063H466.856C467.668 772.063 468.472 772.226 469.222 772.543C469.972 772.859 470.654 773.323 471.228 773.909C471.802 774.494 472.257 775.189 472.568 775.953C472.879 776.718 473.038 777.537 473.038 778.365L473.038 779.39Z" fill="#2F2E41"/>
<path id="Vector_132" d="M416.903 768.698L420.641 770.792L430.343 757.1L424.829 754.01L416.903 768.698Z" fill="#A0616A"/>
<path id="Vector_133" d="M426.337 779.758L412.83 772.19L416.293 765.768L424.382 770.3C425.819 771.106 426.883 772.46 427.341 774.064C427.799 775.669 427.612 777.394 426.822 778.858L426.337 779.758Z" fill="#2F2E41"/>
<path id="Vector_134" d="M459.345 765.026C458.965 765.026 458.598 764.885 458.313 764.629C458.027 764.373 457.843 764.021 457.794 763.637L452.461 721.758C452.438 721.573 452.357 721.4 452.232 721.264C452.106 721.128 451.941 721.036 451.761 721.002C451.581 720.967 451.395 720.991 451.229 721.07C451.063 721.15 450.926 721.281 450.838 721.444L428.612 762.536C428.429 762.872 428.133 763.129 427.78 763.262C427.426 763.394 427.037 763.392 426.684 763.257L421.84 761.376C421.645 761.301 421.467 761.186 421.316 761.04C421.165 760.893 421.045 760.717 420.962 760.522C420.879 760.327 420.835 760.117 420.832 759.905C420.83 759.692 420.869 759.482 420.948 759.285L436.344 720.742C436.383 720.644 436.409 720.542 436.422 720.437C438.507 703.989 443.813 695.625 445.39 693.453C445.505 693.293 445.58 693.108 445.61 692.912C445.64 692.716 445.624 692.516 445.562 692.328L445.345 691.666C445.259 691.403 445.241 691.122 445.294 690.849C445.347 690.577 445.468 690.324 445.647 690.114C451.327 683.521 461.228 687.119 461.327 687.156L461.376 687.175L461.408 687.218C472.509 702.733 468.404 753.127 467.469 763.071C467.434 763.445 467.271 763.794 467.007 764.057C466.744 764.319 466.398 764.479 466.031 764.507L459.466 765.022C459.426 765.025 459.385 765.026 459.345 765.026Z" fill="#2F2E41"/>
<path id="Vector_135" d="M478.801 661.491C478.758 661.683 478.73 661.877 478.717 662.073L463.776 670.857L460.144 668.726L456.272 673.891L462.342 678.3C462.832 678.656 463.423 678.841 464.025 678.826C464.627 678.811 465.208 678.597 465.681 678.217L481.088 665.83C481.783 666.093 482.54 666.133 483.259 665.946C483.977 665.759 484.623 665.354 485.109 664.784C485.596 664.214 485.901 663.506 485.984 662.755C486.066 662.005 485.923 661.246 485.572 660.58C485.221 659.915 484.679 659.374 484.02 659.029C483.36 658.685 482.612 658.553 481.877 658.652C481.142 658.751 480.454 659.076 479.905 659.583C479.355 660.09 478.97 660.756 478.801 661.491V661.491Z" fill="#A0616A"/>
<path id="Vector_136" d="M463.277 671.273L458.447 677.651C458.31 677.832 458.136 677.982 457.937 678.088C457.738 678.195 457.518 678.257 457.294 678.269C457.069 678.282 456.845 678.245 456.635 678.161C456.426 678.077 456.237 677.948 456.081 677.783L450.614 671.998C449.708 671.276 449.119 670.217 448.977 669.054C448.835 667.891 449.152 666.717 449.857 665.791C450.562 664.865 451.599 664.262 452.741 664.113C453.882 663.965 455.034 664.284 455.945 665L462.802 668.907C462.998 669.018 463.168 669.172 463.301 669.357C463.434 669.542 463.526 669.754 463.571 669.979C463.616 670.203 463.613 670.435 463.562 670.659C463.511 670.882 463.414 671.091 463.277 671.273H463.277Z" fill="#6C63FF"/>
<path id="Vector_137" d="M444.56 682.354L436.78 680.922C436.559 680.882 436.349 680.793 436.164 680.662C435.98 680.531 435.825 680.361 435.71 680.164C435.596 679.966 435.525 679.746 435.502 679.518C435.478 679.29 435.503 679.06 435.575 678.842L438.097 671.233C438.308 670.08 438.959 669.06 439.907 668.395C440.856 667.731 442.024 667.476 443.156 667.688C444.287 667.9 445.291 668.56 445.945 669.525C446.6 670.489 446.853 671.679 446.648 672.833L446.402 680.835C446.395 681.064 446.339 681.289 446.239 681.494C446.139 681.699 445.997 681.88 445.822 682.024C445.647 682.168 445.444 682.272 445.226 682.329C445.008 682.386 444.781 682.395 444.56 682.354V682.354Z" fill="#6C63FF"/>
<path id="Vector_138" d="M446.941 649.376C449.137 650.908 452.02 652.482 454.263 650.851C454.964 650.307 455.474 649.545 455.715 648.681C455.957 647.817 455.917 646.896 455.602 646.057C454.528 642.928 451.578 641.55 448.757 640.494C445.172 638.844 441.185 638.328 437.309 639.012C433.523 639.995 430.177 643.731 430.861 647.651C431.41 650.804 434.328 653.427 433.914 656.601C433.497 659.796 429.972 661.477 426.86 662.048C423.748 662.619 420.265 662.802 418.028 665.08C415.175 667.987 415.888 673.181 418.572 676.249C421.506 679.112 425.225 680.997 429.235 681.654C434.436 682.907 440.062 683.565 445.002 681.486C449.942 679.407 453.786 673.81 452.355 668.563C451.602 666.387 450.446 664.38 448.951 662.649C447.455 660.916 446.332 658.883 445.656 656.68C445.414 655.75 445.387 654.776 445.578 653.834C445.769 652.892 446.172 652.008 446.756 651.252C446.977 651.007 447.115 650.697 447.153 650.367C447.19 650.036 447.123 649.702 446.963 649.413L446.941 649.376Z" fill="#2F2E41"/>
</g>
</g>
</svg>
