<svg id="amusement_wheel" viewBox="0 0 465 465" xmlns="http://www.w3.org/2000/svg">
                <g>
                  <path
                    d="M461.1,387.3c-10-3-20.1-5.8-30.2-8.5v-59l-0.3,0.3c0.2-1.3,0.3-2.7,0.3-4.1c0-9.5-5.3-18.1-13.7-22.4l-16.4-8.3v-11.5
		c0-6.3-3.6-11.8-9.5-14.2c-3.7-1.5-7.5-1.6-11-0.3l-29.2-29.2c1.4,0,2.9-0.6,3.9-1.6c1-1,1.6-2.4,1.6-3.9c0-1.5-0.6-2.9-1.6-3.9
		c-1-1-2.4-1.6-3.9-1.6c-1.5,0-2.9,0.6-3.9,1.6c-1,1-1.6,2.4-1.6,3.9l-4-4c1.4,0,2.8-0.5,3.9-1.6c2.1-2.2,2.1-5.6,0-7.8
		c-2.2-2.1-5.6-2.1-7.8,0c-1.1,1.1-1.6,2.5-1.6,3.9l-4-4c1.4,0,2.8-0.5,3.9-1.6c2.1-2.2,2.1-5.6,0-7.8c-2.2-2.1-5.6-2.1-7.8,0
		c-1.1,1.1-1.6,2.5-1.6,3.9l-1.8-1.8c-0.8-0.8-1.6-1.5-2.4-2.2c0.1,0,0.1,0,0.2,0c1.5,0,2.9-0.6,3.9-1.6c1-1,1.6-2.5,1.6-3.9
		c0-1.4-0.6-2.9-1.6-3.9c-1-1-2.4-1.6-3.9-1.6c-1.5,0-2.9,0.6-3.9,1.6c-1,1-1.6,2.4-1.6,3.9c0,0.5,0.1,1.1,0.3,1.6
		c-19.2-12.9-45.4-11-62.6,5.7v-40.4h1.5c3,0,5.5-2.5,5.5-5.5c0-3-2.5-5.5-5.5-5.5h-1.5v-14.7h18.1c9.5,0,17.2-7.7,17.2-17.2
		c0-9.5-7.7-17.2-17.2-17.2h-17.6c1.9-3.2,3-7,3-11c0-12.1-9.9-22-22-22s-22,9.9-22,22c0,4,1.1,7.8,3,11h-17.6
		c-9.5,0-17.2,7.7-17.2,17.2c0,9.5,7.7,17.2,17.2,17.2h18.1v14.7h-1.5c-3,0-5.5,2.5-5.5,5.5c0,3,2.5,5.5,5.5,5.5h1.5v173h-9.1
		c-3,0-5.5,2.5-5.5,5.5v15c-9.1,0.5-18.3,1.2-27.4,2l-14.2-24.4l-5.5-9.5l-28.8-49.4c0,0-35,3.6-34.6,3.8l-14.6,55.4l-2.8,10.7
		L67,376.6c-13.2,3.2-26.4,6.8-39.4,10.8c-2.9,0.9-4.5,4-3.7,6.9c0.9,2.9,4,4.5,6.9,3.7c10.9-3.3,21.9-6.3,33-9.1l-1.4,5.4
		c-0.8,2.9,1,5.9,3.9,6.7c0.5,0.1,0.9,0.2,1.4,0.2c2.4,0,4.7-1.6,5.3-4.1l3-11.2c5.4-1.3,10.9-2.5,16.3-3.6
		c16.3-3.4,33-6.4,49.6-8.7c9.3-1.3,18.6-2.4,28-3.4l9.6,16.5c1,1.8,2.9,2.7,4.8,2.7c0.9,0,1.9-0.2,2.8-0.7c2.6-1.5,3.5-4.9,2-7.5
		l-7-12.1c39.6-3.4,79.5-3.5,119-0.5c53.2,4.1,106,14,157,29.4c0.5,0.2,1.1,0.2,1.6,0.2c2.4,0,4.5-1.5,5.3-3.9
		C465.7,391.3,464,388.2,461.1,387.3z M140.3,362.5c-16.9,2.4-33.8,5.3-50.3,8.8c-3.6,0.8-7.3,1.6-10.9,2.4l6.8-25.8l2.8-10.6
		l14.6-55.3c0.7,0.1,1.3,0.1,2,0.2l10.9-1.3c0.5-0.1,1-0.3,1.4-0.5l28.9,49.6l5.5,9.5l11.7,20.1C156,360.5,148.1,361.4,140.3,362.5z
		M400.8,297.7l11.4,5.8c4.8,2.4,7.7,7.3,7.7,12.6c0,7.8-6.4,14.2-14.2,14.2h-4.9V297.7z M236.3,80.8c6.1,0,11,4.9,11,11
		s-4.9,11-11,11c-6.1,0-11-4.9-11-11S230.2,80.8,236.3,80.8z M199.7,126.2c-3.4,0-6.2-2.8-6.2-6.2c0-3.4,2.8-6.2,6.2-6.2h73.3
		c3.4,0,6.2,2.8,6.2,6.2c0,3.4-2.8,6.2-6.2,6.2H199.7z M238.9,355.3c-8.2,0.1-16.5,0.3-24.7,0.6v-9h24.7V355.3z M243.8,218.3
		c-3,6.3-4.7,13.3-4.8,20.5l0,97.2h-10.1v-173h15V218.3z M243.8,151.9h-15v-14.7h15V151.9z M262.6,295L262.6,295l0,60.5
		c-4.2-0.1-8.4-0.2-12.7-0.2v-84.2c1.1,1.4,2.3,2.8,3.6,4c3.2,3.2,6.8,5.9,10.7,8.1c-1.1,3.6-1.6,7.4-1.6,11.2
		C262.6,294.6,262.6,294.8,262.6,295z M288.1,356.6c-4.8-0.3-9.6-0.5-14.5-0.7v-34c0.2,0.2,0.4,0.5,0.7,0.7c4,4,8.7,7,13.8,9V356.6z
		M313.5,358.5c-3.9-0.4-7.8-0.7-11.7-1c-0.9-0.1-1.8-0.1-2.8-0.2v-23.2c1.1,0.1,2.2,0.1,3.3,0.1c3.8,0,7.6-0.5,11.1-1.6V358.5z
		M338.9,361.3c-4.8-0.6-9.6-1.2-14.4-1.7v-32.1c2.1-1.4,4.1-3.1,6-4.9l8.5-8.5V361.3z M322.7,314.8c-5.4,5.4-12.6,8.4-20.3,8.4
		s-14.9-3-20.3-8.4c-5.4-5.4-8.4-12.7-8.4-20.3s3-14.9,8.4-20.3l0.6-0.6c5.4-5.4,12.7-8.4,20.3-8.4s14.9,3,20.3,8.4l20.3,20.3
		L322.7,314.8z M364.4,365c-4.8-0.8-9.6-1.5-14.4-2.2v-59.6l14.4-14.4V365z M351.4,286.1L331,265.8c-7.5-7.5-17.5-11.6-28.1-11.6
		c-10.6,0-20.6,4.1-28.1,11.6l-0.6,0.6c-2.1,2.1-3.9,4.4-5.5,6.8c-2.7-1.6-5.2-3.6-7.5-5.8c-7.4-7.4-11.4-17.1-11.4-27.5
		c0-10.4,4-20.2,11.4-27.5l0.8-0.7c15.2-15.2,39.8-15.2,55,0l54.4,54.4L351.4,286.1z M375.4,366.8v-89.1l7-7c1.9-1.9,4.1-1.2,4.8-1
		c0.6,0.3,2.7,1.3,2.7,4v71.3c0,10.6,4.5,20.2,11.8,26.9C392.9,370.1,384.1,368.4,375.4,366.8z M419.9,369.9
		c-11-2.9-19.1-12.9-19.1-24.8v-3.8h4.9c5.3,0,10.1-1.6,14.2-4.4V369.9z"
                  />
                  <path
                    d="M121.5,253.4c1-3.9,0.5-7.9-1.5-11.4c-2-3.5-5.3-5.9-9.1-6.9c-3.9-1-7.9-0.5-11.4,1.5c-3.5,2-5.9,5.3-6.9,9.1
		c-1,3.9-0.5,7.9,1.5,11.4c2.8,4.8,7.8,7.4,13,7.4c2.6,0,5.2-0.7,7.5-2C118,260.5,120.4,257.3,121.5,253.4z M110.8,250.6
		c-0.3,1-0.9,1.9-1.8,2.4c-1.9,1.1-4.3,0.5-5.5-1.4c-0.5-0.9-0.7-2-0.4-3c0.3-1,0.9-1.9,1.8-2.4c0.6-0.4,1.3-0.5,2-0.5
		c0.3,0,0.7,0,1,0.1c1,0.3,1.9,0.9,2.4,1.8c0,0,0,0,0,0C111,248.5,111.1,249.6,110.8,250.6z"
                  />
                  <path
                    d="M268.1,261.2c3,0,5.5-2.5,5.5-5.5V227c0-3-2.5-5.5-5.5-5.5s-5.5,2.5-5.5,5.5v28.7C262.6,258.7,265.1,261.2,268.1,261.2z"
                  />
                  <path
                    d="M293.6,276.8c-3,0-5.5,2.5-5.5,5.5V307c0,3,2.5,5.5,5.5,5.5s5.5-2.5,5.5-5.5v-24.8C299.1,279.2,296.6,276.8,293.6,276.8z"
                  />
                  <path
                    d="M293.6,249.5c3,0,5.5-2.5,5.5-5.5V214c0-3-2.5-5.5-5.5-5.5s-5.5,2.5-5.5,5.5V244C288.1,247,290.5,249.5,293.6,249.5z"
                  />
                  <path
                    d="M319,306.9c3,0,5.5-2.5,5.5-5.5v-14.1c0-3-2.5-5.5-5.5-5.5s-5.5,2.5-5.5,5.5v14.1C313.5,304.4,316,306.9,319,306.9z"
                  />
                  <path
                    d="M319,250.2c3,0,5.5-2.5,5.5-5.5v-13.4c0-3-2.5-5.5-5.5-5.5s-5.5,2.5-5.5,5.5v13.4C313.5,247.7,316,250.2,319,250.2z"
                  />
                  <path
                    d="M344.4,268.7c3,0,5.5-2.5,5.5-5.5v-6.8c0-3-2.5-5.5-5.5-5.5s-5.5,2.5-5.5,5.5v6.8C338.9,266.2,341.4,268.7,344.4,268.7z"
                  />
                  <path
                    d="M62.3,101.8c0.2,2.9,2.6,5.1,5.5,5.1h88.1c2.5,0,4.8-1.8,5.4-4.2c0.5-1.9,0.7-3.9,0.7-5.8c0-13.8-11.2-25-25-25
		c-3.5,0-7,0.7-10.1,2.1c-5.5-6.4-13.5-10.1-22-10.1C94,63.9,84,70.1,79.1,79.5c-9.7,2.1-16.8,10.8-16.8,21c0,0.4,0,0.8,0,1.2
		L62.3,101.8z M83.1,90c2.2-0.1,4-1.5,4.8-3.5c2.7-6.9,9.4-11.5,16.8-11.5c6.5,0,12.5,3.5,15.7,9.1c0.8,1.4,2.1,2.3,3.7,2.7
		c1.5,0.3,3.2,0,4.4-1c2.5-1.8,5.4-2.8,8.4-2.8c7.4,0,13.4,5.7,14,13H74.3C75.9,92.6,79.2,90.2,83.1,90z"
                  />
                  <path
                    d="M308.3,150.8c0.2,2.9,2.6,5.2,5.5,5.2h110.1c2.5,0,4.8-1.8,5.4-4.2c0.5-2.3,0.8-4.6,0.8-6.9c0-12-7.1-22.3-17.3-27.1
		c0.1-1,0.2-2.1,0.2-3.1c0-15.7-12.8-28.5-28.5-28.5c-12.2,0-22.9,7.7-26.8,18.9c-12.3,0.8-23.3,8.2-28.8,19.2
		c-11.8,2.3-20.6,12.7-20.6,25c0,0.4,0,0.9,0.1,1.3L308.3,150.8z M384.5,97.1c9.6,0,17.5,7.9,17.5,17.5c0,0.1,0,0.2,0,0.4
		c-0.6,0-1.2-0.1-1.8-0.1c-4.6,0-9,1-13,3c-4.6-5.7-11-9.8-18-11.8C372.1,100.7,377.9,97.1,384.5,97.1z M332.9,134.7
		c2.2-0.1,4-1.5,4.8-3.5c3.5-9.1,12.5-15.3,22.3-15.3c8.6,0,16.5,4.6,20.8,12.1c0.8,1.4,2.1,2.4,3.7,2.7c1.5,0.3,3.2,0,4.4-1
		c3.3-2.5,7.2-3.8,11.3-3.8c10.4,0,18.9,8.5,18.9,18.9c0,0,0,0.1,0,0.1h-99.2C321.6,139.3,326.7,135.1,332.9,134.7z"
                  />
                  <g>
                    <path
                    style="animation: rotateWheel 10s infinite linear"
                      class="wheel_group"
                      d="M213.9,235.7c-0.4-3-3.2-5.1-6.2-4.7l-1.8,0.2c-1.7-9.3-4.8-18.3-9.2-26.9l1.6-1c2.6-1.5,3.5-4.9,2-7.5
			c-1.5-2.6-4.9-3.5-7.5-2l-1.6,0.9c-5.2-8.1-11.5-15.3-18.7-21.4l1.1-1.5c1.8-2.4,1.4-5.9-1-7.7c-2.4-1.8-5.9-1.4-7.7,1l-1.1,1.4
			c-7.8-5.3-16.4-9.6-25.5-12.6c0.5-2.8-1.3-5.5-4-6.2c-2.7-0.7-5.6,0.8-6.5,3.4c-9.4-2-19-2.6-28.4-1.9l-0.2-1.8
			c-0.4-3-3.2-5.1-6.2-4.7c-3,0.4-5.1,3.2-4.7,6.2l0.2,1.8c-9.3,1.7-18.3,4.8-26.9,9.2l-1-1.6c-1.5-2.6-4.9-3.5-7.5-2
			c-2.6,1.5-3.5,4.9-2,7.5l0.9,1.6c-8.2,5.3-15.3,11.6-21.4,18.7l-1.5-1.1c-2.4-1.8-5.9-1.4-7.7,1c-1.8,2.4-1.4,5.9,1,7.7l1.5,1.1
			c-5.4,7.9-9.6,16.5-12.6,25.5l-1.9-0.5c-2.9-0.8-5.9,1-6.7,3.9c-0.8,2.9,1,5.9,3.9,6.7l1.8,0.5c-2,9.3-2.6,18.8-1.9,28.3l-1.9,0.3
			c-3,0.4-5.1,3.2-4.7,6.2c0.4,2.8,2.7,4.8,5.4,4.8c0.2,0,0.5,0,0.7-0.1l1.8-0.2c1.7,9.2,4.7,18.2,9.1,26.9l-1.6,0.9
			c-2.6,1.5-3.5,4.9-2,7.5c1,1.8,2.9,2.7,4.8,2.7c0.9,0,1.9-0.2,2.8-0.7l1.6-0.9c5.3,8.2,11.6,15.3,18.7,21.4l-1.1,1.5
			c-1.8,2.4-1.4,5.9,1,7.7c1,0.8,2.2,1.1,3.3,1.1c1.7,0,3.3-0.7,4.4-2.2l1.1-1.5c7.8,5.3,16.3,9.5,25.2,12.5l10.6,2.9
			c7,1.5,14.1,2.3,21.2,2.3c2.5,0,4.9-0.1,7.4-0.3l0.3,1.9c0.4,2.8,2.7,4.8,5.4,4.8c0.2,0,0.5,0,0.7,0c3-0.4,5.1-3.2,4.7-6.2
			l-0.2-1.8c9.1-1.7,18.1-4.7,26.7-9l9.5-5.5c8.2-5.3,15.4-11.6,21.6-18.8l1.5,1.1c1,0.8,2.2,1.1,3.3,1.1c1.7,0,3.3-0.7,4.4-2.2
			c1.8-2.4,1.4-5.9-1-7.7l-1.4-1.1c5.3-7.8,9.6-16.3,12.6-25.5l1.8,0.5c0.5,0.1,0.9,0.2,1.4,0.2c2.4,0,4.7-1.6,5.3-4.1
			c0.8-2.9-1-5.9-3.9-6.7l-1.8-0.5c2-9.4,2.6-19,1.9-28.4l1.8-0.2C212.2,241.4,214.3,238.7,213.9,235.7z M195,232.7l-56.7,7.7
			c-0.2-0.6-0.4-1.1-0.5-1.7l49.5-28.8C190.9,217.1,193.5,224.8,195,232.7z M165.9,182.1c6,5.3,11.4,11.4,15.8,18.2l-49.4,28.8
			c-0.4-0.5-0.8-0.9-1.1-1.3L165.9,182.1z M135.6,164.7c7.7,2.6,15,6.2,21.6,10.7l-34.7,45.6c-0.5-0.3-1-0.5-1.6-0.8L135.6,164.7z
			M106.8,160c6,0,12.1,0.6,18.1,1.9l-14.6,55.3c-0.6-0.1-1.2-0.1-1.7-0.1l-7.7-56.9C102.9,160,104.8,160,106.8,160z M90,161.6
			l7.7,56.7c-0.6,0.2-1.1,0.4-1.7,0.6l-28.9-49.6C74.5,165.7,82.1,163.1,90,161.6z M57.6,174.8l28.8,49.4c-0.5,0.4-0.9,0.8-1.3,1.1
			l-45.6-34.7C44.7,184.7,50.7,179.4,57.6,174.8z M32.8,199.4l45.5,34.7c-0.3,0.5-0.5,1-0.8,1.6L22.1,221
			C24.6,213.4,28.2,206.1,32.8,199.4z M17.6,255.7c-0.5-8.1,0-16.2,1.7-24l55.3,14.6c-0.1,0.6-0.1,1.2-0.1,1.8L17.6,255.7z
			M19,266.6l56.7-7.7c0.2,0.6,0.4,1.1,0.6,1.7l-49.5,28.9C23,282.1,20.5,274.4,19,266.6z M48,317.1c-6-5.2-11.3-11.3-15.9-18.2
			l49.5-28.8c0.4,0.5,0.7,0.9,1.1,1.3L48,317.1z M78.1,334.4c-7.5-2.6-14.7-6.1-21.4-10.6l34.7-45.5c0.4,0.2,0.9,0.5,1.3,0.7
			L78.1,334.4z M107.1,339.2c-6.2,0-12.4-0.7-18.4-1.9l14.6-55.3c0.7,0.1,1.3,0.1,2,0.2L113,339
			C111.1,339.2,109.1,339.2,107.1,339.2z M88.3,260.5c-6-10.3-2.5-23.6,7.8-29.6c3.4-2,7.2-2.9,10.9-2.9c7.5,0,14.7,3.9,18.7,10.7
			c2.9,5,3.7,10.8,2.2,16.4c-1.5,5.6-5,10.3-10,13.2C107.5,274.3,94.3,270.8,88.3,260.5z M123.9,337.6l-7.7-56.7
			c0.5-0.1,1-0.3,1.4-0.5l28.9,49.6C139.2,333.6,131.6,336.2,123.9,337.6z M156.1,324.6l-28.8-49.4c0.5-0.4,1-0.9,1.5-1.3l45.6,34.7
			C169.2,314.7,163,320.1,156.1,324.6z M181.2,299.9l-45.5-34.7c0.3-0.5,0.5-1,0.8-1.6l55.4,14.6C189.3,286,185.7,293.2,181.2,299.9
			z M194.8,267.6L139.4,253c0.1-0.6,0.1-1.2,0.1-1.8l56.8-7.7C196.9,251.5,196.4,259.6,194.8,267.6z"
                    />
                    <path
                      d="M145,342.4c2.3-0.9,4.5-1.9,6.7-3l0.9,1.6c1.4,2.4,4.3,3.4,6.8,2.4c0.2-0.1,0.5-0.2,0.7-0.3c2.6-1.5,3.5-4.9,2-7.5
			l-0.9-1.6c7.8-5,15-11.1,21.3-18.4"
                    />
                    <path
                      d="M67.4,342.1c2.3,1,4.6,1.8,6.9,2.6l-0.5,1.8c-0.7,2.7,0.6,5.5,3.1,6.5c0.2,0.1,0.5,0.2,0.7,0.2c2.9,0.8,6-0.9,6.8-3.8
			l0.5-1.8c9,2,18.4,2.8,28.1,2.3"
                    />
                  </g>
                </g>
              </svg>